<?xml version="1.0" encoding="utf-8"?>
<!-- Generator: Adobe Illustrator 16.0.3, SVG Export Plug-In . SVG Version: 6.00 Build 0)  -->
<!DOCTYPE svg PUBLIC "-//W3C//DTD SVG 1.1//EN" "http://www.w3.org/Graphics/SVG/1.1/DTD/svg11.dtd">
<svg version="1.1" xmlns="http://www.w3.org/2000/svg" xmlns:xlink="http://www.w3.org/1999/xlink" x="0px" y="0px" width="24px"
	 height="24px" viewBox="0 0 24 24" enable-background="new 0 0 24 24" xml:space="preserve">
<g id="Outline_Icons_1_">
	<g id="Outline_Icons">
		<g>
			<g>
				
					<line fill="none" stroke="#000000" stroke-linecap="round" stroke-linejoin="round" stroke-miterlimit="10" x1="12.5" y1="14.5" x2="12.5" y2="11.696"/>
				<path fill="none" stroke="#000000" stroke-linecap="round" stroke-linejoin="round" stroke-miterlimit="10" d="M7.5,11.696V14.5
					l-5.009,1.789C1.297,16.716,0.5,17.847,0.5,19.114V21.5h12"/>
				<ellipse fill="none" stroke="#000000" stroke-linejoin="round" stroke-miterlimit="10" cx="10" cy="6.5" rx="5" ry="6"/>
				<path fill="none" stroke="#000000" stroke-linejoin="round" stroke-miterlimit="10" d="M14.953,5.953
					C14.785,5.974,14.669,5.967,14.5,6c-1.703,0.328-2.797-0.289-3.734-1.93C10.203,5.148,8.444,6,7,6
					C6.289,6,5.677,5.854,5.064,5.534"/>
			</g>
			<g>
				<path fill="none" stroke="#000000" stroke-linejoin="round" stroke-miterlimit="10" d="M21.897,22.117l1-1.732l-1-0.578
					c0.137-0.576,0.137-1.037,0-1.613l0.999-0.576l-1-1.732l-0.999,0.576c-0.391-0.369-0.869-0.64-1.397-0.799V14.5h-2v1.162
					c-0.529,0.159-1.006,0.43-1.397,0.799l-0.999-0.576l-1,1.732l0.999,0.576c-0.137,0.576-0.137,1.037,0,1.613l-1,0.578l1,1.732
					l1-0.578c0.391,0.369,0.869,0.64,1.397,0.799V23.5h2v-1.162c0.528-0.159,1.006-0.43,1.397-0.799L21.897,22.117z"/>
				<circle fill="none" stroke="#000000" stroke-linejoin="round" stroke-miterlimit="10" cx="18.5" cy="19" r="1.5"/>
			</g>
		</g>
	</g>
	<g id="New_icons_1_">
	</g>
</g>
<g id="Invisible_Shape">
	<rect fill="none" width="24" height="24"/>
</g>
</svg>
