<?xml version="1.0" encoding="utf-8"?>
<!-- Generator: Adobe Illustrator 16.0.3, SVG Export Plug-In . SVG Version: 6.00 Build 0)  -->
<!DOCTYPE svg PUBLIC "-//W3C//DTD SVG 1.1//EN" "http://www.w3.org/Graphics/SVG/1.1/DTD/svg11.dtd">
<svg version="1.1" xmlns="http://www.w3.org/2000/svg" xmlns:xlink="http://www.w3.org/1999/xlink" x="0px" y="0px" width="24px"
	 height="24px" viewBox="0 0 24 24" enable-background="new 0 0 24 24" xml:space="preserve">
<g id="Outline_Icons">
	<g>
		<path fill="none" stroke="#000000" stroke-linecap="round" stroke-linejoin="round" stroke-miterlimit="10" d="M13,21.5H5.5
			c-2.762,0-5-2.238-5-5v-3.334c0-5.666,4-6.666,6-6.666c0.961,0,2.363,0,3,0c0.972,0,2,0.5,2,1.5v0.5c0,1-1,1.5-2,1.5h-2
			c0,0-1,3.5-3,3.5"/>
		<path fill="none" stroke="#000000" stroke-linecap="round" stroke-linejoin="round" stroke-miterlimit="10" d="M10.5,15.5H17
			c0.828,0,1.5,0.672,1.5,1.5c0,0.829-0.672,1.5-1.5,1.5h-4"/>
		<path fill="none" stroke="#000000" stroke-linecap="round" stroke-linejoin="round" stroke-miterlimit="10" d="M10.5,18.5H13
			c0.828,0,1.5,0.672,1.5,1.5c0,0.829-0.672,1.5-1.5,1.5h-1.5"/>
		
			<line fill="none" stroke="#000000" stroke-linecap="round" stroke-linejoin="round" stroke-miterlimit="10" x1="23.5" y1="7.5" x2="11.396" y2="7.5"/>
		<path fill="none" stroke="#000000" stroke-linecap="round" stroke-linejoin="round" stroke-miterlimit="10" d="M5.5,6.578V5
			c0-0.828,0.672-1.5,1.5-1.5h15c0.828,0,1.5,0.672,1.5,1.5v9c0,0.829-0.672,1.5-1.5,1.5H7c-0.828,0-1.5-0.671-1.5-1.5v-0.812"/>
		
			<line fill="none" stroke="#000000" stroke-linecap="round" stroke-linejoin="round" stroke-miterlimit="10" x1="21.5" y1="9.5" x2="18.5" y2="9.5"/>
	</g>
</g>
<g id="Invisible_Shape">
	<rect fill="none" width="24" height="24"/>
</g>
</svg>
