<svg class="account-settings" x="0px" y="0px" viewBox="0 0 24 24" xml:space="preserve">
			<line x1="7.5" y1="19.5" x2="3.5" y2="15.5"/>
			<line x1="3.5" y1="19.5" x2="7.5" y2="15.5"/>
			<line x1="5.5" y1="4" x2="5.5" y2="9"/>
			<line x1="8" y1="6.5" x2="3" y2="6.5"/>
			<line x1="15" y1="6.5" x2="20" y2="6.5"/>
			<line x1="15" y1="18.5" x2="20" y2="18.5"/>
			<line x1="15" y1="18.5" x2="20" y2="18.5"/>
			<line x1="15" y1="16.5" x2="20" y2="16.5"/>
			<line x1="11.5" y1="0.5" x2="11.5" y2="23.5"/>
			<line x1="0.5" y1="11.5" x2="23.5" y2="11.5"/>
		<path d="M23.5,20.5
			c0,1.657-1.344,3-3,3h-17c-1.657,0-3-1.343-3-3v-17c0-1.657,1.343-3,3-3h17c1.656,0,3,1.343,3,3V20.5z"/></svg>
