<svg width="37px" height="37px" viewBox="0 0 37 37" >
    <g fill="none" fill-rule="evenodd" stroke-linejoin="round">
            <g id="Group" transform="translate(2.000000, 2.000000)">
                <polygon points="0 31.1055652 5.91304348 31.1055652 5.91304348 19.2173913 0 19.2173913"></polygon>
                <path d="M5.91304348,28.826087 C21.4347826,34 16.2608696,34 34,25.1304348 C32.4286087,23.5590435 31.1883478,23.1894783 29.5652174,23.6521739 L23.0106087,25.8266957" stroke-linecap="round"></path>
                <path d="M5.91304348,20.6956522 L10.3478261,20.6956522 C13.8246957,20.6956522 16.2608696,22.9130435 17,23.6521739 L21.4347826,23.6521739 C23.7911304,23.6521739 23.7911304,26.6086957 21.4347826,26.6086957 L13.3043478,26.6086957" stroke-linecap="round"></path>
                <path d="M20.6956522,4.43478261 C20.6956522,6.88426087 22.6809565,8.86956522 25.1304348,8.86956522 C27.579913,8.86956522 29.5652174,6.88426087 29.5652174,4.43478261 C29.5652174,1.98530435 27.579913,0 25.1304348,0 C22.6809565,0 20.6956522,1.98530435 20.6956522,4.43478261 L20.6956522,4.43478261 Z" stroke-linecap="round"></path>
                <path d="M13.3043478,14.7826087 C13.3043478,17.232087 15.2896522,19.2173913 17.7391304,19.2173913 C20.1886087,19.2173913 22.173913,17.232087 22.173913,14.7826087 C22.173913,12.3331304 20.1886087,10.3478261 17.7391304,10.3478261 C15.2896522,10.3478261 13.3043478,12.3331304 13.3043478,14.7826087 L13.3043478,14.7826087 Z" stroke-linecap="round"></path>
                <path d="M17.7391304,13.3043478 L17.7391304,16.2608696" stroke-linecap="round"></path>
                <path d="M25.1304348,2.95652174 L25.1304348,5.91304348" stroke-linecap="round"></path>
            </g>
    </g>
</svg>
