<svg version="1.1" xmlns="http://www.w3.org/2000/svg" xmlns:xlink="http://www.w3.org/1999/xlink" x="0px" y="0px" width="24px"
	 height="24px" viewBox="0 0 24 24" enable-background="new 0 0 24 24" xml:space="preserve">
		<polyline fill="none" stroke-linecap="round" stroke-linejoin="round" stroke-miterlimit="10" points="15.5,3.5 
			19.5,3.5 19.5,23.5 3.5,23.5 3.5,3.5 7.5,3.5 		"/>
		<path fill="none" stroke-linecap="round" stroke-linejoin="round" stroke-miterlimit="10" d="M13.5,2.5
			c0-1.104-0.895-2-2-2s-2,0.896-2,2h-2v4h8v-4H13.5z"/>
		<polyline fill="none" stroke-linecap="round" stroke-linejoin="round" stroke-miterlimit="10" points="7.5,5.5 
			5.5,5.5 5.5,20.5 17.5,20.5 17.5,5.5 15.5,5.5 		"/>
		
			<line fill="none" stroke-linecap="round" stroke-linejoin="round" stroke-miterlimit="10" x1="8" y1="9.5" x2="15" y2="9.5"/>
		
			<line fill="none" stroke-linecap="round" stroke-linejoin="round" stroke-miterlimit="10" x1="8" y1="11.5" x2="15" y2="11.5"/>
		
			<line fill="none" stroke-linecap="round" stroke-linejoin="round" stroke-miterlimit="10" x1="8" y1="13.5" x2="15" y2="13.5"/>
		
			<line fill="none" stroke-linecap="round" stroke-linejoin="round" stroke-miterlimit="10" x1="8" y1="15.5" x2="15" y2="15.5"/>
</svg>
