<svg width="31px" height="31px" viewBox="0 0 31 31" >
                <path fill="none" stroke-linecap="round" stroke-linejoin="round" stroke-miterlimit="10" d="M29.375,19.375 C29.375,20.75 28.25125,21.875 26.875,21.875 L3.125,21.875 C1.75,21.875 0.625,20.75 0.625,19.375 L0.625,3.125 C0.625,1.75 1.75,0.625 3.125,0.625 L26.875,0.625 C28.25125,0.625 29.375,1.75 29.375,3.125 L29.375,19.375 L29.375,19.375 Z"></path>
                <path stroke="none" d="M5.41625,11.875 L6.13625,10.095 L6.85125,11.875 L5.41625,11.875 Z M6.94375,8.75 L5.3175,8.75 L3.16,13.75 L4.66625,13.75 L5.07125,12.5 L7.18875,12.5 L7.58625,13.75 L9.0925,13.75 L6.94375,8.75 Z"></path>
                <polygon stroke="none" points="15.625 8.75 14.07875 8.75 12.5725 10.58 11.0725 8.75 10 8.75 10 13.75 11.25 13.75 11.25 10.925 12.4975 12.5 12.615 12.5 13.75 10.925 13.75 13.75 15.625 13.75"></polygon>
                <polygon stroke="none" points="20 8.75 16.875 8.75 16.875 13.75 20.625 13.75 20.625 12.5 18.125 12.5 18.125 11.875 20 11.875 20 10.625 18.125 10.625 18.125 10 20 10"></polygon>
                <path stroke="none" d="M26.565,8.75 L24.72,8.75 C23.92875,9.79875 24.3525,9.2125 23.72625,10.1375 C23.5625,9.92125 22.99375,9.16125 22.70125,8.75 L20.8225,8.75 L22.79625,11.15375 L20.7275,13.75 L22.58875,13.75 C23.1025,13.12 23.19125,13.02125 23.72625,12.30125 C23.98375,12.645 24.68,13.46375 24.92125,13.75 L26.81125,13.75 L24.6675,11.15375 L26.565,8.75 Z" ></path>
</svg>
