<svg class="amexIcon" x="0px" y="0px" width="24px" height="24px" viewBox="0 0 24 24" enable-background="new 0 0 24 24" xml:space="preserve">
		<path fill="none" stroke-linecap="round" stroke-linejoin="round" stroke-miterlimit="10" d="M23.5,18.5
			c0,1.1-0.899,2-2,2h-19c-1.1,0-2-0.9-2-2v-13c0-1.1,0.9-2,2-2h19c1.101,0,2,0.9,2,2V18.5z"/>
				<path stroke="none" class="fillColor" d="M5.555,10H4.254l-1.726,4h1.205l0.323-1h1.694l0.318,1h1.205L5.555,10L5.555,10z M4.333,12.5l0.576-1.424L5.481,12.5
					H4.333L4.333,12.5z"/>
				<polygon stroke="none" class="fillColor" points="12.5,10 11.263,10 10.058,11.464 8.858,10 8,10 8,14 9,14 9,11.74 9.998,13 10.092,13 11,11.74 11,14 12.5,14
					12.5,10 				"/>
				<polygon stroke="none" class="fillColor" points="16,10 13.5,10 13.5,14 16.5,14 16.5,13 14.5,13 14.5,12.5 16,12.5 16,11.5 14.5,11.5 14.5,11 16,11 16,10
					"/>
				<path stroke="none" class="fillColor" d="M21.252,10h-1.476c-0.634,0.839-0.294,0.37-0.796,1.11c-0.131-0.174-0.585-0.781-0.819-1.11h-1.503l1.579,1.923
					L16.582,14h1.489c0.411-0.504,0.481-0.583,0.909-1.159c0.207,0.275,0.764,0.931,0.957,1.159h1.512l-1.715-2.077L21.252,10
					L21.252,10z"/>
</svg>
