<svg width="30" height="30" viewBox="0 0 30 30" fill="none" xmlns="http://www.w3.org/2000/svg">
<path d="M13.305 22.3312C15.2912 19.9562 13.43 16.9087 15.1962 14.8549C15.4881 14.5 15.8479 14.2069 16.2546 13.993C16.6613 13.779 17.1067 13.6485 17.5645 13.6091C18.0223 13.5697 18.4834 13.6222 18.9207 13.7635C19.358 13.9048 19.7626 14.1321 20.1108 14.432C20.459 14.7319 20.7438 15.0983 20.9483 15.5098C21.1529 15.9213 21.2732 16.3695 21.3021 16.8281C21.331 17.2868 21.268 17.7465 21.1167 18.1805C20.9655 18.6144 20.729 19.0137 20.4212 19.3549C19.5741 20.4013 18.4805 21.221 17.2384 21.7404C15.9964 22.2599 14.6448 22.4629 13.305 22.3312Z"  stroke-width="1.5" stroke-linecap="round" stroke-linejoin="round"/>
<path d="M20.775 15.3461L28.565 5.02989C28.773 4.74684 28.9202 4.42383 28.9974 4.08115C29.0746 3.73848 29.0801 3.38355 29.0135 3.03865C28.9469 2.69376 28.8098 2.36635 28.6106 2.07701C28.4115 1.78767 28.1546 1.54263 27.8562 1.35731C27.5578 1.17198 27.2244 1.05036 26.8767 1.0001C26.5291 0.94983 26.1748 0.972001 25.8361 1.06521C25.4975 1.15843 25.1817 1.32067 24.9088 1.54175C24.6358 1.76283 24.4115 2.03797 24.25 2.34989L18.5887 13.7499"  stroke-width="1.5" stroke-linecap="round" stroke-linejoin="round"/>
<path d="M16.875 6.53003H4.6875C3.69294 6.53003 2.73911 6.92512 2.03585 7.62838C1.33259 8.33164 0.9375 9.28547 0.9375 10.28V25.28C0.9375 26.2746 1.33259 27.2284 2.03585 27.9317C2.73911 28.6349 3.69294 29.03 4.6875 29.03H19.6875C20.6821 29.03 21.6359 28.6349 22.3392 27.9317C23.0424 27.2284 23.4375 26.2746 23.4375 25.28V23.405"  stroke-width="1.5" stroke-linecap="round" stroke-linejoin="round"/>
</svg>
