
<svg>
    <path d="M22.5945148,3.24817443 L22.5945148,73.3377796 C22.5122112,73.3339161 22.4297716,73.3339161 22.3474679,73.3377796 C20.9894238,73.4658264 19.9534712,74.6094302 19.9593468,75.9740628 L19.9593468,88.2904884 C17.4441135,89.1710334 15.1281747,90.335251 13.1243772,91.7918412 C8.55531216,95.1133941 5.46591736,99.9496689 5.46591736,105.426448 C5.46591736,105.888734 5.50171916,106.360775 5.54826413,106.827015 C5.53729468,106.899631 4.64517868,111.37569 2.87191612,120.255195 L0.236746767,133.436743 C0.0752638097,134.215701 0.273982594,135.025959 0.777516104,135.64168 C1.28104961,136.257402 2.03555696,136.61275 2.83074141,136.608682 L8.1010788,136.608682 L13.3714162,136.608682 L47.6286112,136.608682 L52.8989486,136.608682 L58.1692873,136.608682 C58.9644431,136.612741 59.7189226,136.25741 60.2224503,135.641721 C60.7259781,135.026032 60.9247179,134.215814 60.7632806,133.436875 L58.1281126,120.255327 L55.4929432,107.073911 C55.5038182,106.415479 55.53411,105.91523 55.53411,105.426184 C55.53411,99.9494053 52.4447139,95.1131304 47.8756502,91.7915776 C45.871854,90.3349874 43.5559139,89.1707698 41.0406819,88.2902248 L41.0406819,75.9737992 C41.0405298,74.5178783 39.8608114,73.3376612 38.4055125,73.337516 L38.4055125,3.2479108 C38.4053677,1.7919848 37.2256472,0.611759672 35.7703432,0.611614399 L25.2296684,0.611614399 C25.1473647,0.607750907 25.0649252,0.607750907 24.9826215,0.611614399 C23.6245875,0.739924661 22.5886325,1.88353629 22.5945148,3.24817443 Z M33.1351909,5.88447083 L33.1351909,73.3377796 L27.8648536,73.3377796 L27.8648536,5.88447083 L33.1351909,5.88447083 Z M25.2296842,78.6104251 L35.770359,78.6104251 L35.770359,86.9723073 C34.0672729,86.6997074 32.3087124,86.5192484 30.5000216,86.5192484 C28.691332,86.5192484 26.9327716,86.6997074 25.2296842,86.9723073 L25.2296842,78.6104251 Z M30.5000216,91.7918412 C36.1678921,91.7918412 41.2498232,93.4628995 44.7875775,96.0346709 C48.1700646,98.493606 50.0195255,101.631141 50.181439,104.973257 L10.8186042,104.973257 C10.980519,101.631141 12.8299785,98.493606 16.2124657,96.0346709 C19.7502213,93.4628995 24.8321511,91.7918412 30.5000216,91.7918412 Z M10.2833356,110.24585 L50.7167076,110.24585 L52.9401312,121.285485 L54.9576826,131.336353 L52.8989565,131.336353 L48.6168081,131.336353 L42.0700601,118.278451 C41.6016446,117.309001 40.5910349,116.72193 39.5172401,116.795497 C38.6382302,116.863907 37.8516414,117.367526 37.4213634,118.137397 C36.9910853,118.907269 36.9741226,119.841397 37.3761659,120.626395 L42.7288527,131.336353 L33.1351909,131.336353 L33.1351909,119.472986 C33.1515398,118.713743 32.8398542,117.984318 32.2799571,117.471516 C31.7200599,116.958715 30.9663308,116.712343 30.2118,116.795497 C28.8541706,116.944751 27.8354775,118.106917 27.8648536,119.472986 L27.8648536,131.336353 L18.2711918,131.336353 L23.6238786,120.626395 C24.0501665,119.789587 23.9993027,118.789091 23.4903497,117.99987 C22.9813967,117.210649 22.0912086,116.751879 21.153408,116.795497 C20.1981377,116.849389 19.3471002,117.417004 18.9299831,118.278451 L12.3832364,131.336353 L8.10108671,131.336353 L6.04236061,131.336353 L8.059912,121.285485 L10.2833356,110.24585 Z"></path>
</svg>
