<svg width="32" height="32" viewBox="0 0 32 32" fill="none" xmlns="http://www.w3.org/2000/svg">
<path d="M8.48442 9.13675C8.41016 9.17388 8.40397 9.21101 8.46585 9.24814C9.76542 9.82985 10.4152 10.8633 10.4152 12.3485C10.4152 13.4872 10.0377 14.366 9.28272 14.9848C8.52774 15.6036 7.54378 15.9131 6.33085 15.9131H1.80094C1.7143 15.9131 1.64623 15.8883 1.59672 15.8388C1.54721 15.7893 1.52246 15.7212 1.52246 15.6346V3.19588C1.52246 3.10924 1.54721 3.04117 1.59672 2.99166C1.64623 2.94215 1.7143 2.9174 1.80094 2.9174H6.18233C7.46952 2.9174 8.46585 3.21444 9.17133 3.80853C9.88919 4.39024 10.2481 5.24424 10.2481 6.37053C10.2481 7.69485 9.66022 8.61692 8.48442 9.13675ZM3.39755 4.45831C3.33566 4.45831 3.30472 4.48925 3.30472 4.55114V8.43127C3.30472 8.49315 3.33566 8.5241 3.39755 8.5241H6.18233C6.90019 8.5241 7.46333 8.34463 7.87177 7.9857C8.29258 7.62678 8.50298 7.13789 8.50298 6.51905C8.50298 5.88783 8.29258 5.38657 7.87177 5.01527C7.46333 4.64396 6.90019 4.45831 6.18233 4.45831H3.39755ZM6.33085 14.3536C7.03633 14.3536 7.59329 14.1617 8.00172 13.7781C8.42254 13.382 8.63294 12.8498 8.63294 12.1814C8.63294 11.5131 8.42254 10.9871 8.00172 10.6034C7.58091 10.2073 7.00539 10.0093 6.27516 10.0093H3.39755C3.33566 10.0093 3.30472 10.0403 3.30472 10.1021V14.2607C3.30472 14.3226 3.33566 14.3536 3.39755 14.3536H6.33085Z" fill="#3384FF"/>
<path d="M19.2633 15.9131C19.1148 15.9131 19.0096 15.845 18.9477 15.7088L16.3857 10.2135C16.3609 10.164 16.3238 10.1393 16.2743 10.1393H13.6566C13.5947 10.1393 13.5638 10.1702 13.5638 10.2321V15.6346C13.5638 15.7212 13.539 15.7893 13.4895 15.8388C13.44 15.8883 13.3719 15.9131 13.2853 15.9131H12.06C11.9733 15.9131 11.9053 15.8883 11.8558 15.8388C11.8063 15.7893 11.7815 15.7212 11.7815 15.6346V3.17731C11.7815 3.09068 11.8063 3.0226 11.8558 2.9731C11.9053 2.92359 11.9733 2.89883 12.06 2.89883H16.9612C17.7038 2.89883 18.3536 3.05354 18.9106 3.36296C19.4799 3.67239 19.9193 4.10557 20.2287 4.66253C20.5381 5.21949 20.6928 5.86308 20.6928 6.59331C20.6928 7.44731 20.4638 8.17754 20.0059 8.78401C19.5608 9.36141 18.9638 9.75759 18.2147 9.97256C18.1714 9.985 18.119 9.99649 18.0986 10.0367V10.0367C18.0778 10.0776 18.1037 10.123 18.1236 10.1643L20.6998 15.5163C20.7199 15.5579 20.7356 15.6014 20.7468 15.6462V15.6462C20.7603 15.7001 20.774 15.7581 20.7518 15.8091C20.7215 15.8784 20.6461 15.9131 20.5257 15.9131H19.2633ZM13.6566 4.43975C13.5947 4.43975 13.5638 4.47069 13.5638 4.53257V8.65405C13.5638 8.71594 13.5947 8.74688 13.6566 8.74688H16.7384C17.382 8.74688 17.9018 8.54885 18.2979 8.15279C18.7063 7.75673 18.9106 7.2431 18.9106 6.61188C18.9106 5.95591 18.7125 5.42989 18.3165 5.03383C17.9204 4.63778 17.3944 4.43975 16.7384 4.43975H13.6566Z" fill="#3384FF"/>
<path d="M26.928 2.89883C27.683 2.89883 28.3451 3.05973 28.9145 3.38153C29.4962 3.69095 29.9417 4.13033 30.2512 4.69966C30.573 5.26899 30.7339 5.92497 30.7339 6.66757C30.7339 7.41018 30.573 8.05997 30.2512 8.61692C29.9294 9.17388 29.4714 9.60707 28.8773 9.91649C28.2956 10.2259 27.6211 10.3806 26.8537 10.3806H23.6048C23.5429 10.3806 23.512 10.4116 23.512 10.4734V15.6346C23.512 15.7212 23.4872 15.7893 23.4377 15.8388C23.3882 15.8883 23.3201 15.9131 23.2335 15.9131H22.0082C21.9216 15.9131 21.8535 15.8883 21.804 15.8388C21.7545 15.7893 21.7297 15.7212 21.7297 15.6346V3.17731C21.7297 3.09068 21.7545 3.0226 21.804 2.9731C21.8535 2.92359 21.9216 2.89883 22.0082 2.89883H26.928ZM26.6866 8.93253C27.3674 8.93253 27.9119 8.72831 28.3204 8.31988C28.7412 7.91144 28.9516 7.37305 28.9516 6.7047C28.9516 6.02398 28.7412 5.4794 28.3204 5.07096C27.9119 4.65015 27.3674 4.43975 26.6866 4.43975H23.6048C23.5429 4.43975 23.512 4.47069 23.512 4.53257V8.8397C23.512 8.90159 23.5429 8.93253 23.6048 8.93253H26.6866Z" fill="#3384FF"/>
<path fill-rule="evenodd" clip-rule="evenodd" d="M22.2919 18.8679C20.4009 18.8679 18.8679 20.4009 18.8679 22.2919C18.8679 24.183 20.4009 25.716 22.2919 25.716C24.183 25.716 25.716 24.183 25.716 22.2919C25.716 20.4009 24.183 18.8679 22.2919 18.8679ZM14.2266 22.2919C14.2266 17.8375 17.8376 14.2266 22.2919 14.2266C26.7463 14.2266 30.3573 17.8375 30.3573 22.2919C30.3573 26.7463 26.7463 30.3573 22.2919 30.3573C17.8376 30.3573 14.2266 26.7463 14.2266 22.2919Z" fill="white"/>
<path fill-rule="evenodd" clip-rule="evenodd" d="M22.292 17.5418C19.6686 17.5418 17.5419 19.6685 17.5419 22.292C17.5419 24.9154 19.6686 27.0421 22.292 27.0421C24.9155 27.0421 27.0422 24.9154 27.0422 22.292C27.0422 19.6685 24.9155 17.5418 22.292 17.5418ZM15.5527 22.292C15.5527 18.57 18.57 15.5527 22.292 15.5527C26.014 15.5527 29.0313 18.57 29.0313 22.292C29.0313 26.014 26.014 29.0312 22.292 29.0312C18.57 29.0312 15.5527 26.014 15.5527 22.292Z" fill="#3384FF"/>
<path fill-rule="evenodd" clip-rule="evenodd" d="M25.677 25.6769C26.0654 25.2885 26.6952 25.2885 27.0836 25.6769L31.2034 29.7967C31.5918 30.1851 31.5918 30.8148 31.2034 31.2032C30.815 31.5916 30.1853 31.5916 29.7969 31.2032L25.677 27.0834C25.2886 26.695 25.2886 26.0653 25.677 25.6769Z" fill="#3384FF"/>
</svg>
