<svg class="account-settings" x="0px" y="0px" viewBox="0 0 24 24" xml:space="preserve">
		<polyline points="21.502,10.338 21.502,22.5 2.502,22.5 2.502,10.338 		"/>
			<rect x="4.502" y="13.5" width="8" height="6"/>
			<rect x="14.502" y="13.5" width="5" height="9"/>
		<polygon points="21.502,2.5 2.502,2.5 0.502,6.5 23.502,6.5 		"/>
		<path d="M23.502,7.5 c0,2.302-2.76,4.228-5,2c-1.454,2.31-4.658,2.73-6.5,0.64c-1.862,2.117-5.065,1.638-6.5-0.64c-2.214,2.206-5,0.327-5-2v-1h23V7.5z"/>
		<polyline points="5.502,9.5 5.502,6.5 6.502,2.5 		"/>
		<polyline points="12.002,10.146 12.002,6.5 12.002,2.5 		"/>
		<polyline points="18.502,9.5 18.502,6.5 17.502,2.5 		"/>
				<path d="M17.502,18c-0.276,0-0.5,0.224-0.5,0.5c0,0.277,0.224,0.5,0.5,0.5s0.5-0.223,0.5-0.5C18.002,18.224,17.778,18,17.502,18L17.502,18z"/>
</svg>
