<svg x="0px" y="0px" width="24px" height="24px" viewBox="0 0 24 24" enable-background="new 0 0 24 24" xml:space="preserve">
		<path d="M12,0C5.383,0,0,5.384,0,12c0,6.617,5.383,12,12,12s12-5.383,12-12C24,5.384,18.617,0,12,0z M19,15c0,0.552-0.449,1-1,1H6
			c-0.551,0-1-0.448-1-1v-5c0-0.551,0.449-1,1-1h2.5c0.132,0,0.26-0.053,0.354-0.146l1.707-1.707C10.654,7.053,10.781,7,10.914,7
			h2.172c0.133,0,0.26,0.053,0.354,0.147l1.707,1.707C15.24,8.947,15.368,9,15.5,9H18c0.551,0,1,0.449,1,1V15z"/>
		<path d="M12,9c-1.654,0-3,1.346-3,3s1.346,3,3,3s3-1.346,3-3S13.654,9,12,9z M12,14c-1.102,0-2-0.896-2-2c0-1.102,0.898-2,2-2
			c1.103,0,2,0.898,2,2C14,13.104,13.103,14,12,14z"/>
		<circle cx="17.5" cy="10" r="0.5"/>
</svg>
