<svg width="37px" height="29px" viewBox="0 0 37 29" version="1.1" xmlns="http://www.w3.org/2000/svg" xmlns:xlink="http://www.w3.org/1999/xlink">
    <g fill="none" fill-rule="evenodd" stroke-linecap="round" stroke-linejoin="round">
                <path d="M19.0490431,27.1082536 L8.05921053,27.1082536 C4.01202153,27.1082536 0.732655502,23.8288876 0.732655502,19.7816986 L0.732655502,14.8963517 C0.732655502,6.59389952 6.59389952,5.12858852 9.52452153,5.12858852 L13.9204545,5.12858852 C15.3447368,5.12858852 16.8510766,5.86124402 16.8510766,7.32655502 L16.8510766,8.05921053 C16.8510766,9.52452153 15.3857656,10.257177 13.9204545,10.257177 L10.9898325,10.257177 C10.9898325,10.257177 9.52452153,15.3857656 6.59389952,15.3857656"></path>
                <path d="M15.3857656,18.3163876 L24.9102871,18.3163876 C26.1235646,18.3163876 27.1082536,19.3010766 27.1082536,20.5143541 C27.1082536,21.7290969 26.1235646,22.7123206 24.9102871,22.7123206 L19.0490431,22.7123206"></path>
                <path d="M15.3857656,22.7123206 L19.0490431,22.7123206 C20.2623206,22.7123206 21.2470096,23.6970096 21.2470096,24.9102871 C21.2470096,26.1250299 20.2623206,27.1082536 19.0490431,27.1082536 L16.8510766,27.1082536"></path>
                <path d="M34.4348086,6.59389952 L16.6986842,6.59389952"></path>
                <path d="M8.05921053,5.24229665 L8.05921053,2.93003589 C8.05921053,1.71675837 9.04389952,0.732069378 10.257177,0.732069378 L32.2368421,0.732069378 C33.4501196,0.732069378 34.4348086,1.71675837 34.4348086,2.93003589 L34.4348086,16.1178349 C34.4348086,17.3325778 33.4501196,18.3158014 32.2368421,18.3158014 L10.257177,18.3158014 C9.04389952,18.3158014 8.05921053,17.3325778 8.05921053,16.1178349 L8.05921053,14.9280024"></path>
                <path d="M31.5041866,9.52452153 L27.1082536,9.52452153" ></path>

    </g>
</svg>
