<svg x="0px" y="0px" width="24px" height="24px" viewBox="0 0 24 24" enable-background="new 0 0 24 24" xml:space="preserve">
		<ellipse fill="none" stroke-linecap="round" stroke-linejoin="round" stroke-miterlimit="10" cx="9.5" cy="12.5" rx="5" ry="1"/>
		<path fill="none" stroke-linecap="round" stroke-linejoin="round" stroke-miterlimit="10" d="M4.5,12.5v2
			c0,0.553,2.238,1,5,1s5-0.447,5-1v-2"/>
		<path fill="none" stroke-linecap="round" stroke-linejoin="round" stroke-miterlimit="10" d="M14.5,14.5v2
			c0,0.553-2.238,1-5,1s-5-0.447-5-1v-2"/>
		<path fill="none" stroke-linecap="round" stroke-linejoin="round" stroke-miterlimit="10" d="M14.5,16.5v2
			c0,0.553-2.238,1-5,1s-5-0.447-5-1v-2"/>
		<path fill="none" stroke-linecap="round" stroke-linejoin="round" stroke-miterlimit="10" d="M14.5,18.5v2
			c0,0.553-2.238,1-5,1s-5-0.447-5-1v-2"/>
		<path fill="none" stroke-linecap="round" stroke-linejoin="round" stroke-miterlimit="10" d="M14.5,20.5v2
			c0,0.553-2.238,1-5,1s-5-0.447-5-1v-2"/>
		<polyline fill="none" stroke-linecap="round" stroke-linejoin="round" stroke-miterlimit="10" points="4.5,14.5
			0.5,14.5 0.5,0.5 23.5,0.5 23.5,14.5 14.5,14.5 		"/>
			<circle fill="none" stroke-linecap="round" stroke-linejoin="round" stroke-miterlimit="10" cx="12" cy="7.5" r="3"/>
			<circle fill="none" stroke-linecap="round" stroke-linejoin="round" stroke-miterlimit="10" cx="5" cy="5" r="0.5"/>
			<circle fill="none" stroke-linecap="round" stroke-linejoin="round" stroke-miterlimit="10" cx="19" cy="10" r="0.5"/>
		<path fill="none" stroke-linecap="round" stroke-linejoin="round" stroke-miterlimit="10" d="M4.5,12.5
			c-1.104,0-2-0.896-2-2v-6c0-1.104,0.896-2,2-2h15c1.104,0,2,0.896,2,2v6c0,1.104-0.896,2-2,2h-5"/>
</svg>
