<svg class="account-settings" x="0px" y="0px" viewBox="0 0 24 24" xml:space="preserve">
  <path d="M23.5,18.736a.993.993,0,0,0-.106-.447L20.5,12.5H3.5L.606,18.289a.993.993,0,0,0-.106.447V22.5a1,1,0,0,0,1,1h21a1,1,0,0,0,1-1Z"/>
  <path d="M8.5,21.5V21a.5.5,0,0,1,.5-.5h6a.5.5,0,0,1,.5.5v.5"/>
  <path d="M20.5,12.5H3.5v-5a1,1,0,0,1,1-1h15a1,1,0,0,1,1,1Z"/>
  <rect x="5.5" y="8.5" width="5.5" height="2" rx="0.5" ry="0.5"/>
  <line x1="14" y1="9.5" x2="18.5" y2="9.5"/>
  <path d="M9.5,4.5V2a.5.5,0,0,0-.621-.485l-3,.75A.5.5,0,0,0,5.5,2.75V4.5"/>
  <rect x="14.5" y="0.5" width="6" height="3" rx="1" ry="1"/>
  <line x1="17.5" y1="3.5" x2="17.5" y2="6.5"/>
  <line x1="7" y1="14.5" x2="8" y2="14.5"/>
  <line x1="10" y1="14.5" x2="11" y2="14.5"/>
  <line x1="13" y1="14.5" x2="14" y2="14.5"/>
  <line x1="16" y1="14.5" x2="17" y2="14.5"/>
  <line x1="4" y1="16.5" x2="5" y2="16.5"/>
  <line x1="7" y1="16.5" x2="8" y2="16.5"/>
  <line x1="10" y1="16.5" x2="11" y2="16.5"/>
  <line x1="13" y1="16.5" x2="14" y2="16.5"/>
  <line x1="16" y1="16.5" x2="17" y2="16.5"/>
  <line x1="19" y1="16.5" x2="20" y2="16.5"/>
  <line x1="0.523" y1="18.5" x2="23.475" y2="18.5"/></svg>
