<svg x="0px" y="0px" width="24px" height="24px" viewBox="0 0 24 24" enable-background="new 0 0 24 24" xml:space="preserve">
			<path fill="none" stroke-linecap="round" stroke-linejoin="round" stroke-miterlimit="10" d="M11,18.5
				c0,0.829,0.672,1.5,1.5,1.5s1.5-0.671,1.5-1.5c0-0.828-0.672-1.5-1.5-1.5S11,16.329,11,15.5c0-0.828,0.672-1.5,1.5-1.5
				s1.5,0.672,1.5,1.5"/>
				<line fill="none" stroke-linecap="round" stroke-linejoin="round" stroke-miterlimit="10" x1="12.5" y1="20" x2="12.5" y2="21"/>
				<line fill="none" stroke-linecap="round" stroke-linejoin="round" stroke-miterlimit="10" x1="12.5" y1="13" x2="12.5" y2="14"/>
		<path fill="none" stroke-linecap="round" stroke-linejoin="round" stroke-miterlimit="10" d="M14.78,10.5H9.22
			C7.021,12.122,4.5,15.405,4.5,18c0,3.591,2,5.5,7.5,5.5s7.5-1.909,7.5-5.5C19.5,15.405,16.979,12.122,14.78,10.5z"/>
			<line fill="none" stroke-linecap="round" stroke-linejoin="round" stroke-miterlimit="10" x1="8.5" y1="8.5" x2="15.5" y2="8.5"/>
		<path fill="none" stroke-linecap="round" stroke-linejoin="round" stroke-miterlimit="10" d="M16.5,1.5L13,3
			l-1-2.5L11,3L7.5,1.5c0,0,2,3,2,5h5C14.5,4.5,16.5,1.5,16.5,1.5z"/>
</svg>
