<svg width="31px" height="31px" viewBox="0 0 31 31">
            <g id="Cash" transform="translate(0.399351, 0.806452)">
                <path fill="none" d="M18.125,15.625 C18.125,16.31625 15.3275,16.875 11.875,16.875 C8.4225,16.875 5.625,16.31625 5.625,15.625 C5.625,14.935 8.4225,14.375 11.875,14.375 C15.3275,14.375 18.125,14.935 18.125,15.625 L18.125,15.625 Z" ></path>
                <path fill="none" d="M5.625,15.625 L5.625,18.125 C5.625,18.81625 8.4225,19.375 11.875,19.375 C15.3275,19.375 18.125,18.81625 18.125,18.125 L18.125,15.625" ></path>
                <path fill="none" d="M18.125,18.125 L18.125,20.625 C18.125,21.31625 15.3275,21.875 11.875,21.875 C8.4225,21.875 5.625,21.31625 5.625,20.625 L5.625,18.125" ></path>
                <path fill="none" d="M18.125,20.625 L18.125,23.125 C18.125,23.81625 15.3275,24.375 11.875,24.375 C8.4225,24.375 5.625,23.81625 5.625,23.125 L5.625,20.625" ></path>
                <path fill="none" d="M18.125,23.125 L18.125,25.625 C18.125,26.31625 15.3275,26.875 11.875,26.875 C8.4225,26.875 5.625,26.31625 5.625,25.625 L5.625,23.125" ></path>
                <path fill="none" d="M18.125,25.625 L18.125,28.125 C18.125,28.81625 15.3275,29.375 11.875,29.375 C8.4225,29.375 5.625,28.81625 5.625,28.125 L5.625,25.625" ></path>
                <polyline fill="none" points="5.625 18.125 0.625 18.125 0.625 0.625 29.375 0.625 29.375 18.125 18.125 18.125"></polyline>
                <path fill="none" d="M18.75,9.375 C18.75,11.44625 17.07125,13.125 15,13.125 C12.92875,13.125 11.25,11.44625 11.25,9.375 C11.25,7.30375 12.92875,5.625 15,5.625 C17.07125,5.625 18.75,7.30375 18.75,9.375 L18.75,9.375 Z" ></path>
                <path fill="none" d="M6.875,6.25 C6.875,6.59625 6.595,6.875 6.25,6.875 C5.905,6.875 5.625,6.59625 5.625,6.25 C5.625,5.905 5.905,5.625 6.25,5.625 C6.595,5.625 6.875,5.905 6.875,6.25 L6.875,6.25 Z"></path>
                <path fill="none" d="M24.375,12.5 C24.375,12.84625 24.095,13.125 23.75,13.125 C23.405,13.125 23.125,12.84625 23.125,12.5 C23.125,12.155 23.405,11.875 23.75,11.875 C24.095,11.875 24.375,12.155 24.375,12.5 L24.375,12.5 Z"></path>
                <path fill="none" d="M5.625,15.625 C4.245,15.625 3.125,14.505 3.125,13.125 L3.125,5.625 C3.125,4.245 4.245,3.125 5.625,3.125 L24.375,3.125 C25.755,3.125 26.875,4.245 26.875,5.625 L26.875,13.125 C26.875,14.505 25.755,15.625 24.375,15.625 L18.125,15.625"></path>
            </g>
</svg>
