<svg width="31px" height="31px" viewBox="0 0 31 31">
        <g transform="translate(1.000000, 1.000000)" fill="none" fill-rule="evenodd" stroke-linejoin="round" stroke-linecap="round">
            <polygon points="7.85416667 21.1458333 21.1458333 21.1458333 21.1458333 7.85416667 7.85416667 7.85416667"></polygon>
            <polygon points="7.85416667 28.3958333 21.1458333 28.3958333 21.1458333 21.1458333 7.85416667 21.1458333"></polygon>
            <path d="M0.604166667,21.1458333 L28.36925,21.1458333"></path>
            <path d="M0.604166667,15.1041667 L7.85416667,15.1041667" ></path>
            <path d="M21.1458333,15.1041667 L28.36925,15.1041667"></path>
            <polyline points="21.1458333 28.3958333 25.9791667 28.3958333 25.9791667 15.1041667"></polyline>
            <polyline points="7.85416667 28.3958333 3.02083333 28.3958333 3.02083333 15.1041667"></polyline>
            <polygon points="5.4375 7.85416667 23.5625 7.85416667 23.5625 5.4375 5.4375 5.4375"></polygon>
            <polygon points="13.8958333 3.02083333 17.5208333 3.02083333 17.5208333 0.604166667 13.8958333 0.604166667"></polygon>
            <path d="M13.8958333,3.02083333 L13.8958333,5.4375" ></path>
            <polygon points="10.2708333 12.6875 12.6875 12.6875 12.6875 10.2708333 10.2708333 10.2708333"></polygon>
            <polygon points="16.3125 12.6875 18.7291667 12.6875 18.7291667 10.2708333 16.3125 10.2708333"></polygon>
            <polygon points="10.2708333 17.5208333 12.6875 17.5208333 12.6875 15.1041667 10.2708333 15.1041667"></polygon>
            <polygon points="16.3125 17.5208333 18.7291667 17.5208333 18.7291667 15.1041667 16.3125 15.1041667"></polygon>
            <polygon points="10.2708333 25.9791667 12.6875 25.9791667 12.6875 23.5625 10.2708333 23.5625"></polygon>
            <polygon points="16.3125 25.9791667 18.7291667 25.9791667 18.7291667 23.5625 16.3125 23.5625"></polygon>
        </g>
</svg>
