<svg version="1.1" xmlns="http://www.w3.org/2000/svg" xmlns:xlink="http://www.w3.org/1999/xlink" x="0px" y="0px" width="24px"
	 height="24px" viewBox="0 0 24 24" enable-background="new 0 0 24 24" xml:space="preserve">
			<path fill="none" stroke-linejoin="round" stroke-miterlimit="10" d="M10,15c0,0-1.5-0.5-1.5-3
				c-0.826,0-0.826-2,0-2c0-0.335-1.5-4,1-3.5c0.5-2,6-2,6.5,0c0.347,1.388-0.5,3.254-0.5,3.5c0.826,0,0.826,2,0,2
				c0,2.5-1.5,3-1.5,3v2.5c2.477,0.929,4.93,1.697,6.186,2.575C22.234,17.999,23.5,15.147,23.5,12c0-6.352-5.148-11.5-11.5-11.5
				S0.5,5.648,0.5,12c0,3.153,1.27,6.009,3.325,8.087c1.33-0.92,3.952-1.746,6.175-2.587V15z"/>
			<path fill="none" stroke-linejoin="round" stroke-miterlimit="10" d="M3.825,20.087
				C5.91,22.194,8.802,23.5,12,23.5c3.203,0,6.1-1.311,8.186-3.425"/>
</svg>
