<svg version="1.1" xmlns="http://www.w3.org/2000/svg" xmlns:xlink="http://www.w3.org/1999/xlink" x="0px" y="0px" width="24px"
	 height="24px" viewBox="0 0 24 24" enable-background="new 0 0 24 24" xml:space="preserve">
				<polyline fill="none" stroke-linecap="round" stroke-linejoin="round" stroke-miterlimit="10" points="
					20.999,16.999 17.999,19.999 15.999,17.999 				"/>
				<circle fill="none" stroke-linejoin="round" stroke-miterlimit="10" cx="18.499" cy="18.499" r="5"/>
			<path fill="none" stroke-linecap="round" stroke-linejoin="round" stroke-miterlimit="10" d="M13.966,13.282
				c-0.777-0.257-1.615-0.533-2.466-0.854v-2.5c0,0,1.5-0.619,1.5-3c0.783,0,0.783-2.071,0-2.071c0-0.233,0.828-1.607,0.5-2.929
				c-0.475-1.904-6.026-1.904-6.5,0c-2.369-0.477-1,2.681-1,3c-0.783,0-0.783,2,0,2c0,2.381,1.5,3,1.5,3v2.5
				c-2.777,1.056-6.088,1.756-6.5,3C0.525,16.857,0.5,19.5,0.5,19.5H11"/>
</svg>
