<svg width="25px" height="25px" viewBox="0 0 25 25" version="1.1" xmlns="http://www.w3.org/2000/svg" xmlns:xlink="http://www.w3.org/1999/xlink">
    <g fill="none" fill-rule="evenodd" stroke-linejoin="round">
            <path d="M10.5833333,15.375 C10.5833333,15.375 9.14583333,14.8958333 9.14583333,12.5 C8.35425,12.5 8.35425,10.5833333 9.14583333,10.5833333 C9.14583333,10.2622917 7.70833333,6.75 10.1041667,7.22916667 C10.5833333,5.3125 15.8541667,5.3125 16.3333333,7.22916667 C16.665875,8.55933333 15.8541667,10.3475833 15.8541667,10.5833333 C16.64575,10.5833333 16.64575,12.5 15.8541667,12.5 C15.8541667,14.8958333 14.4166667,15.375 14.4166667,15.375 L14.4166667,17.7708333 C16.7904583,18.661125 19.14125,19.397125 20.3449167,20.2385417 C22.3075833,18.2490417 23.5208333,15.515875 23.5208333,12.5 C23.5208333,6.41266667 18.5873333,1.47916667 12.5,1.47916667 C6.41266667,1.47916667 1.47916667,6.41266667 1.47916667,12.5 C1.47916667,15.521625 2.69625,18.258625 4.665625,20.2500417 C5.94020833,19.368375 8.45295833,18.5767917 10.5833333,17.7708333 L10.5833333,15.375 L10.5833333,15.375 Z"></path>
            <path d="M4.66581667,20.2499458 C6.66394167,22.2691542 9.43544167,23.5207375 12.5001917,23.5207375 C15.5697333,23.5207375 18.3450667,22.2653208 20.34415,20.2384458"></path>
    </g>
</svg>
