<svg x="0px" y="0px" width="24px"
	 height="24px" viewBox="0 0 24 24" enable-background="new 0 0 24 24" xml:space="preserve">
		<rect x="19.5" y="12.5" fill="none"  stroke-linejoin="round" stroke-miterlimit="10" width="4" height="8"/>
		<path fill="none" stroke-linecap="round" stroke-linejoin="round" stroke-miterlimit="10" d="M19.5,19.062
			c-10.5,3.5-7,3.5-19-2.5c1.063-1.062,1.902-1.313,3-1l4.317,1.367"/>
		<path fill="none" stroke-linecap="round" stroke-linejoin="round" stroke-miterlimit="10" d="M19.5,13.5h-3
			c-2.353,0-4,2-4.5,2c0,0-1.5,0-3.5,0c-1,0-1,2,0,2H14"/>
		<polyline fill="none" stroke-linecap="round" stroke-linejoin="round" stroke-miterlimit="10" points="
			17.5,13.5 17.5,2.5 3.5,2.5 3.5,15.562 		"/>
		<polyline fill="none" stroke-linejoin="round" stroke-miterlimit="10" points="7.5,2.5 7.5,10.5 10.5,8.042
			13.5,10.5 13.5,2.5 		"/>
</svg>
