<svg x="0px" y="0px" width="24px" height="24px" viewBox="0 0 24 24" enable-background="new 0 0 24 24" xml:space="preserve">
		<rect x="0.5" y="13.5" fill="none" stroke-linejoin="round" stroke-miterlimit="10" width="4" height="8.042"/>
		<path fill="none" stroke-linecap="round" stroke-linejoin="round" stroke-miterlimit="10" d="M4.5,20
			c10.5,3.5,7,3.5,19-2.5c-1.062-1.062-1.902-1.313-3-1l-4.434,1.471"/>
		<path fill="none" stroke-linecap="round" stroke-linejoin="round" stroke-miterlimit="10" d="M4.5,14.5h3
			c2.353,0,4,1.5,4.5,2c0,0,1.5,0,3,0c1.594,0,1.594,2,0,2H9.5"/>
			<circle fill="none" stroke-linecap="round" stroke-linejoin="round" stroke-miterlimit="10" cx="17.5" cy="3.5" r="3"/>
			<circle fill="none" stroke-linecap="round" stroke-linejoin="round" stroke-miterlimit="10" cx="12.5" cy="10.5" r="3"/>
			<line fill="none" stroke-linecap="round" stroke-linejoin="round" stroke-miterlimit="10" x1="12.5" y1="9.5" x2="12.5" y2="11.5"/>
			<line fill="none" stroke-linecap="round" stroke-linejoin="round" stroke-miterlimit="10" x1="17.5" y1="2.5" x2="17.5" y2="4.5"/>
</svg>
