<svg x="0px" y="0px" width="24px" height="24px" viewBox="0 0 24 24" enable-background="new 0 0 24 24" xml:space="preserve">
<path fill="none" stroke-linecap="round" stroke-linejoin="round" d="M7.457,9.228l2.872-2.713a1.957,1.957,0,0,1,1.087-.33H15.1a1.954,1.954,0,0,1,1.674.945l.35.578A1.957,1.957,0,0,1,17.2,9.6l-.317.634a1.955,1.955,0,0,1-2.133,1.043l-3.162-.632a.647.647,0,0,0-.488.1,1.937,1.937,0,0,0-.859,1.811.754.754,0,0,0,.478.629l5.349,2.057a1.956,1.956,0,0,0,1.286.041l5.709-1.783"/>
<path fill="none" stroke-linecap="round" stroke-linejoin="round" d="M23.062,5.771,18.7,3.084A1.965,1.965,0,0,0,17.555,2.8l-7.022.413A1.957,1.957,0,0,0,9.348,3.7l-3.5,3.115a1.948,1.948,0,0,0-.556.843L4.617,9.671"/>
<path fill="none" stroke-linecap="round" stroke-linejoin="round" d="M8.437,12.206H6.4a1.341,1.341,0,0,0-.5,2.587l2.063.826a1.342,1.342,0,0,1-.5,2.587H5.437"/>
<line fill="none" stroke-linecap="round" stroke-linejoin="round" x1="6.937" y1="12.206" x2="6.937" y2="11.456"/>
<line fill="none" stroke-linecap="round" stroke-linejoin="round" x1="6.937" y1="18.956" x2="6.937" y2="18.206"/>
<path fill="none" stroke-linecap="round" stroke-linejoin="round" d="M8.224,9.344a5.992,5.992,0,1,0,4.588,4.636"/>
</svg>
