<svg x="0px" y="0px" width="24px" height="24px" viewBox="0 0 24 24" enable-background="new 0 0 24 24" xml:space="preserve">
			<path d="M0.351,23.095c-0.04,0.168,0.011,0.345,0.133,0.468c0.118,0.119,0.292,0.174,0.468,0.133c0,0,6.55-1.543,6.588-1.563
				l-5.625-5.625C1.894,16.545,0.351,23.095,0.351,23.095z"/>
			<rect x="18.516" y="1.031" transform="matrix(0.7074 -0.7069 0.7069 0.7074 2.0085 14.9137)" width="1" height="8"/>
			<rect x="2.841" y="8.352" transform="matrix(0.7071 -0.7071 0.7071 0.7071 -5.3089 11.8869)" width="17.707" height="8"/>
			<path d="M22.905,6.799l0.354-0.354c0.975-0.974,0.975-2.56,0-3.535l-2.121-2.12c-0.472-0.474-1.1-0.733-1.768-0.733
				c-0.668,0-1.296,0.26-1.768,0.733l-0.354,0.352L22.905,6.799z"/>
</svg>
