<svg version="1.1" xmlns="http://www.w3.org/2000/svg" xmlns:xlink="http://www.w3.org/1999/xlink" x="0px" y="0px" width="24px"
	 height="24px" viewBox="0 0 24 24" enable-background="new 0 0 24 24" xml:space="preserve">
			<path fill="none" stroke-linecap="round" stroke-linejoin="round" stroke-miterlimit="10" d="M10,13.5
				c0,0.829,0.672,1.5,1.5,1.5s1.5-0.671,1.5-1.5c0-0.827-0.672-1.5-1.5-1.5S10,11.329,10,10.5C10,9.673,10.672,9,11.5,9
				S13,9.673,13,10.5"/>
			
				<line fill="none" stroke-linecap="round" stroke-linejoin="round" stroke-miterlimit="10" x1="11.5" y1="15" x2="11.5" y2="16"/>
			
				<line fill="none" stroke-linecap="round" stroke-linejoin="round" stroke-miterlimit="10" x1="11.5" y1="8" x2="11.5" y2="9"/>
		<path fill="none" stroke-linejoin="round" stroke-miterlimit="10" d="M23.5,12c0-1.958-1.253-3.619-3-4.238V5.5
			h-17v2.262c-1.746,0.619-3,2.28-3,4.238c0,1.96,1.254,3.62,3,4.239V18.5h17v-2.261C22.247,15.62,23.5,13.96,23.5,12z"/>
	
</svg>
