<svg width="25px" height="25px" viewBox="0 0 25 25" version="1.1" xmlns="http://www.w3.org/2000/svg" xmlns:xlink="http://www.w3.org/1999/xlink">
  <g fill="none" fill-rule="evenodd" stroke-linejoin="round">
          <path d="M10.4166667,13.8541667 C10.4166667,14.7177083 11.1166667,15.4166667 11.9791667,15.4166667 C12.8416667,15.4166667 13.5416667,14.7177083 13.5416667,13.8541667 C13.5416667,12.9927083 12.8416667,12.2916667 11.9791667,12.2916667 C11.1166667,12.2916667 10.4166667,11.5927083 10.4166667,10.7291667 C10.4166667,9.86770833 11.1166667,9.16666667 11.9791667,9.16666667 C12.8416667,9.16666667 13.5416667,9.86770833 13.5416667,10.7291667"></path>
          <path d="M11.9791667,15.4166667 L11.9791667,16.4583333"></path>
          <path d="M11.9791667,8.125 L11.9791667,9.16666667" ></path>
          <path d="M24.4791667,12.2916667 C24.4791667,10.2520833 23.1739583,8.521875 21.3541667,7.87708333 L21.3541667,5.52083333 L3.64583333,5.52083333 L3.64583333,7.87708333 C1.82708333,8.521875 0.520833333,10.2520833 0.520833333,12.2916667 C0.520833333,14.3333333 1.82708333,16.0625 3.64583333,16.7072917 L3.64583333,19.0625 L21.3541667,19.0625 L21.3541667,16.7072917 C23.1739583,16.0625 24.4791667,14.3333333 24.4791667,12.2916667 L24.4791667,12.2916667 Z"></path>
  </g>
</svg>
