<svg x="0px" y="0px" width="24px"
	 height="24px" viewBox="0 0 24 24" enable-background="new 0 0 24 24" xml:space="preserve">
		<path fill="none" stroke-linecap="round" stroke-linejoin="round" stroke-miterlimit="10" d="M11.5,6.017
			c1.78-0.118,3.549,0.394,5,1.483"/>
		<path fill="none" stroke-linecap="round" stroke-linejoin="round" stroke-miterlimit="10" d="M23.5,9.5
			c0,1.105-0.896,2-2,2"/>
		<path fill="none" stroke-linecap="round" stroke-linejoin="round" stroke-miterlimit="10" d="M9.546,3.78
			C8.596,2.099,6.457,1.487,4.75,2.472c0.91,0.527,1.562,1.451,1.715,2.536C4.37,6.276,2.91,8.24,2.574,10.5H0.5v4h2.697
			c1.41,2.931,4.817,5,8.803,5c5.247,0,9.5-3.581,9.5-8C21.5,6.333,15.694,2.395,9.546,3.78z"/>
			<circle fill="none" stroke-linecap="round" stroke-linejoin="round" stroke-miterlimit="10" cx="6" cy="10" r="0.5"/>
			<line fill="none" stroke-linecap="round" stroke-linejoin="round" stroke-miterlimit="10" x1="7.5" y1="18.546" x2="7.5" y2="22"/>
			<line fill="none" stroke-linecap="round" stroke-linejoin="round" stroke-miterlimit="10" x1="16.5" y1="18.546" x2="16.5" y2="22"/>
</svg>
