<svg x="0px" y="0px" width="24px" height="24px" viewBox="0 0 24 24" enable-background="new 0 0 24 24" xml:space="preserve">
		<path fill="none" stroke-linecap="round" stroke-linejoin="round" stroke-miterlimit="10" d="M23.5,8.5
			c0-1.648-1.351-3-3-3h-17c-1.65,0-3,1.352-3,3v10c0,1.65,1.35,3,3,3h17c1.649,0,3-1.35,3-3V8.5z"/>
		<path fill="none" stroke-linecap="round" stroke-linejoin="round" stroke-miterlimit="10" d="M8.5,5.5v-2
			c0-1.1,0.899-2,2-2h3c1.1,0,2,0.9,2,2v2"/>
		<path fill="none" stroke-linecap="round" stroke-linejoin="round" stroke-miterlimit="10" d="M9.6,15.626
			c0,1.051,0.851,1.9,1.9,1.9s1.9-0.85,1.9-1.9c0-1.049-0.851-1.9-1.9-1.9s-1.9-0.852-1.9-1.9c0-1.049,0.851-1.9,1.9-1.9
			s1.9,0.852,1.9,1.9"/>
			<line fill="none" stroke-linecap="round" stroke-linejoin="round" stroke-miterlimit="10" x1="11.5" y1="8.5" x2="11.5" y2="19"/>
</svg>
