<svg width="31px" height="31px" viewBox="0 0 31 31">
            <g fill="none" transform="translate(2.000000, 2.500000)">
                <polygon points="0 11.9117647 27 11.9117647 27 7.14705882 0 7.14705882"></polygon>
                <polygon points="0.794117647 26.2058824 25.4117647 26.2058824 25.4117647 11.9117647 0.794117647 11.9117647"></polygon>
                <path d="M8.73529412,7.14705882 L8.73529412,25.4117647" ></path>
                <path d="M17.4705882,25.4117647 L17.4705882,7.14705882"></path>
                <path d="M19.8282066,4.77440085 C18.7352849,5.86732251 13.5,7.14705882 13.5,7.14705882 C13.5,7.14705882 14.7797363,1.91065526 15.872658,0.818852255 C16.964461,-0.272950752 18.7352849,-0.272950752 19.8282066,0.818852255 C20.9200096,1.91065526 20.9200096,3.6814792 19.8282066,4.77440085 L19.8282066,4.77440085 Z"></path>
                <path d="M6.37804724,4.77440085 C7.47090475,5.86732251 12.7058824,7.14705882 12.7058824,7.14705882 C12.7058824,7.14705882 11.4251026,1.91065526 10.3333637,0.818852255 C9.24162474,-0.272950752 7.47090475,-0.272950752 6.37804724,0.818852255 C5.28630832,1.91065526 5.28518974,3.6814792 6.37804724,4.77440085 L6.37804724,4.77440085 Z" ></path>
    </g>
</svg>
