<svg x="0px" y="0px" width="24px"
	 height="24px" viewBox="0 0 24 24" enable-background="new 0 0 24 24" xml:space="preserve">
			<path fill="none" stroke-linejoin="round" stroke-miterlimit="10" d="M0.5,9.5v3c0,0.825,0.175,1.5,1,1.5v4.5h3
				V14c0.824,0,0.999-0.676,1-1.5v-3H0.5z"/>
			<path fill="none" stroke-linejoin="round" stroke-miterlimit="10" d="M18.5,9.5v3c0,0.825,0.175,1.5,1,1.5v4.5
				h3V14c0.824,0,0.999-0.676,1-1.5v-3H18.5z"/>
			<path fill="none" stroke-linejoin="round" stroke-miterlimit="10" d="M8.5,9.5h7v5c0,1.1-0.9,2-2,2v6h-3v-6
				c-1.101,0-2-0.9-2-2V9.5z"/>
			<path fill="none"  stroke-linejoin="round" stroke-miterlimit="10" d="M4.5,6c0,0.828-0.672,1.5-1.5,1.5l0,0
				C2.172,7.5,1.5,6.828,1.5,6l0,0c0-0.828,0.672-1.5,1.5-1.5l0,0C3.828,4.5,4.5,5.172,4.5,6L4.5,6z"/>
			<path fill="none" stroke-linejoin="round" stroke-miterlimit="10" d="M22.5,6c0,0.828-0.672,1.5-1.5,1.5l0,0
				c-0.828,0-1.5-0.672-1.5-1.5l0,0c0-0.828,0.672-1.5,1.5-1.5l0,0C21.828,4.5,22.5,5.172,22.5,6L22.5,6z"/>
			<path fill="none" stroke-linejoin="round" stroke-miterlimit="10" d="M14.5,5c0,1.381-1.119,2.5-2.5,2.5l0,0
				c-1.381,0-2.5-1.119-2.5-2.5l0,0c0-1.381,1.119-2.5,2.5-2.5l0,0C13.381,2.5,14.5,3.619,14.5,5L14.5,5z"/>
</svg>
