<svg version="1.1" xmlns="http://www.w3.org/2000/svg" xmlns:xlink="http://www.w3.org/1999/xlink" x="0px" y="0px" width="24px"
	 height="24px" viewBox="0 0 24 24" enable-background="new 0 0 24 24" xml:space="preserve">
	<circle fill="none" stroke-linecap="round" stroke-linejoin="round" stroke-miterlimit="10" cx="11.5" cy="12.5" r="11"/>
	<path fill="none" stroke-linecap="round" stroke-linejoin="round" stroke-miterlimit="10" d="M8.5,10
				c0-1.656,1.343-3,3-3c1.656,0,3,1.344,3,3c0,1.658-1.344,3-3,3v3"/>
	<path fill="none" stroke-linejoin="round" stroke-miterlimit="10" d="M12,18.5c0,0.276-0.224,0.5-0.5,0.5l0,0
				c-0.276,0-0.5-0.224-0.5-0.5l0,0c0-0.276,0.224-0.5,0.5-0.5l0,0C11.776,18,12,18.224,12,18.5L12,18.5z"/>
</svg>
