<svg version="1.1" xmlns="http://www.w3.org/2000/svg" xmlns:xlink="http://www.w3.org/1999/xlink" x="0px" y="0px" width="24px"
	 height="24px" viewBox="0 0 24 24" enable-background="new 0 0 24 24" xml:space="preserve">
		<path fill="none" stroke-linecap="round" stroke-linejoin="round" stroke-miterlimit="10" d="M19.195,13.892
			c0,0,4.305-0.561,4.305-4.783c0-2.675-2.209-4.874-4.955-4.773C17.472,2.069,15.172,0.5,12.5,0.5
			c-3.563,0-6.468,2.784-6.676,6.294C3.592,6.327,1.5,8.026,1.5,10.304c0,3.645,3.826,3.588,3.826,3.588"/>
		<line fill="none" stroke-linecap="round" stroke-linejoin="round" stroke-miterlimit="10" x1="8.5" y1="21.5" x2="8.5" y2="12.5"/>
		<polyline fill="none" stroke-linecap="round" stroke-linejoin="round" stroke-miterlimit="10" points="
					5.5,18.5 8.5,21.5 11.5,18.5 				"/>
				
		<line fill="none" stroke-linecap="round" stroke-linejoin="round" stroke-miterlimit="10" x1="15.5" y1="9" x2="15.5" y2="19"/>
		<polyline fill="none" stroke-linecap="round" stroke-linejoin="round" stroke-miterlimit="10" points="
					18.5,12 15.5,9 12.5,12 				"/>
		
</svg>
