<svg width="24" height="24" viewBox="0 0 24 24" fill="none" xmlns="http://www.w3.org/2000/svg">
<g clip-path="url(#clip0)">
<path d="M11.9998 1.13908e-06C9.83522 -0.00105842 7.73521 0.737102 6.04738 2.09228C4.35955 3.44747 3.18511 5.3384 2.71849 7.45206C2.25188 9.56573 2.52106 11.7754 3.48148 13.7152C4.44189 15.655 6.03596 17.2087 7.99978 18.119C8.53747 18.3695 8.969 18.8025 9.21778 19.341L11.0898 23.417C11.1697 23.5907 11.2978 23.7379 11.4588 23.8411C11.6198 23.9443 11.807 23.9991 11.9983 23.9991C12.1895 23.9991 12.3768 23.9443 12.5378 23.8411C12.6988 23.7379 12.8269 23.5907 12.9068 23.417L14.7828 19.338C15.031 18.8 15.4623 18.3676 15.9998 18.118C17.963 17.2073 19.5565 15.6537 20.5165 13.7141C21.4765 11.7745 21.7454 9.56523 21.2789 7.45196C20.8123 5.33868 19.6382 3.44805 17.9508 2.09293C16.2634 0.737805 14.1639 -0.000566551 11.9998 1.13908e-06ZM11.9998 15.5C10.8131 15.5 9.65305 15.1481 8.66636 14.4888C7.67966 13.8295 6.91063 12.8925 6.4565 11.7961C6.00238 10.6997 5.88356 9.49335 6.11507 8.32946C6.34658 7.16557 6.91802 6.09648 7.75714 5.25736C8.59625 4.41825 9.66535 3.8468 10.8292 3.61529C11.9931 3.38378 13.1995 3.5026 14.2959 3.95672C15.3922 4.41085 16.3293 5.17988 16.9886 6.16658C17.6479 7.15327 17.9998 8.31331 17.9998 9.5C17.9982 11.0908 17.3655 12.616 16.2407 13.7409C15.1158 14.8658 13.5906 15.4984 11.9998 15.5Z" fill="#273450"/>
<path d="M11.5 7.25C12.1904 7.25 12.75 6.69036 12.75 6C12.75 5.30964 12.1904 4.75 11.5 4.75C10.8096 4.75 10.25 5.30964 10.25 6C10.25 6.69036 10.8096 7.25 11.5 7.25Z" fill="#273450"/>
<path d="M14.5 13C14.5 12.7348 14.3946 12.4804 14.2071 12.2929C14.0196 12.1054 13.7652 12 13.5 12C13.3674 12 13.2402 11.9473 13.1464 11.8536C13.0527 11.7598 13 11.6326 13 11.5V9.5C13 9.10218 12.842 8.72064 12.5607 8.43934C12.2794 8.15804 11.8978 8 11.5 8H10.5C10.2348 8 9.98043 8.10536 9.79289 8.29289C9.60536 8.48043 9.5 8.73478 9.5 9C9.5 9.26522 9.60536 9.51957 9.79289 9.70711C9.98043 9.89464 10.2348 10 10.5 10C10.6326 10 10.7598 10.0527 10.8536 10.1464C10.9473 10.2402 11 10.3674 11 10.5V11.5C11 11.6326 10.9473 11.7598 10.8536 11.8536C10.7598 11.9473 10.6326 12 10.5 12C10.2348 12 9.98043 12.1054 9.79289 12.2929C9.60536 12.4804 9.5 12.7348 9.5 13C9.5 13.2652 9.60536 13.5196 9.79289 13.7071C9.98043 13.8946 10.2348 14 10.5 14H13.5C13.7652 14 14.0196 13.8946 14.2071 13.7071C14.3946 13.5196 14.5 13.2652 14.5 13Z" fill="#273450"/>
</g>
<defs>
<clipPath id="clip0">
<rect width="24" height="24" fill="white"/>
</clipPath>
</defs>
</svg>
