<svg version="1.1" xmlns="http://www.w3.org/2000/svg" xmlns:xlink="http://www.w3.org/1999/xlink" x="0px" y="0px" width="24px" height="24px" viewBox="0 0 24 24" enable-background="new 0 0 24 24" xml:space="preserve">
		<path d="M18,9.276V6c0-3.309-2.691-6-6-6S6,2.691,6,6v3.276C4.258,9.898,3,11.547,3,13.5v6C3,21.981,5.019,24,7.5,24h9
			c2.481,0,4.5-2.019,4.5-4.5v-6C21,11.547,19.742,9.898,18,9.276z M12,18c-1.104,0-2-0.895-2-2c0-1.106,0.896-2,2-2
			c1.106,0,2,0.894,2,2C14,17.105,13.106,18,12,18z M17,9H7V6c0-2.757,2.243-5,5-5s5,2.243,5,5V9z"/>
</svg>
