<svg width="31px" height="31px" viewBox="0 0 31 31" version="1.1">

                <path fill="none" stroke-linecap="round" stroke-linejoin="round" stroke-miterlimit="10"d="M29.375,19.375 C29.375,20.75 28.25125,21.875 26.875,21.875 L3.125,21.875 C1.75,21.875 0.625,20.75 0.625,19.375 L0.625,3.125 C0.625,1.75 1.75,0.625 3.125,0.625 L26.875,0.625 C28.25125,0.625 29.375,1.75 29.375,3.125 L29.375,19.375 L29.375,19.375 Z" ></path>
                <polygon stroke="none" points="7.5 8.75 8.75 8.75 8.75 7.5 7.5 7.5"></polygon>
                <polygon stroke="none" points="12.5 8.75 13.75 8.75 13.75 7.5 12.5 7.5"></polygon>
                <polygon stroke="none" points="12.5 11.25 13.75 11.25 13.75 10 12.5 10"></polygon>
                <polygon stroke="none" points="12.5 13.75 13.75 13.75 13.75 12.5 12.5 12.5"></polygon>
                <polygon stroke="none" points="12.5 16.25 13.75 16.25 13.75 15 12.5 15"></polygon>
                <polygon stroke="none" points="7.5 11.25 8.75 11.25 8.75 10 7.5 10"></polygon>
                <polygon stroke="none" points="7.5 13.75 8.75 13.75 8.75 12.5 7.5 12.5"></polygon>
                <polygon stroke="none" points="7.5 16.25 8.75 16.25 8.75 15 7.5 15"></polygon>
                <polygon stroke="none" points="10 10 11.25 10 11.25 8.75 10 8.75"></polygon>
                <polygon stroke="none" points="10 7.5 11.25 7.5 11.25 6.25 10 6.25"></polygon>
                <polygon stroke="none" points="10 12.5 11.25 12.5 11.25 11.25 10 11.25"></polygon>
                <polygon stroke="none" points="15 12.5 16.25 12.5 16.25 11.25 15 11.25"></polygon>
                <polygon stroke="none" points="10 15 11.25 15 11.25 13.75 10 13.75"></polygon>
                <polygon stroke="none"  points="10 17.5 11.25 17.5 11.25 16.25 10 16.25"></polygon>
                <polygon stroke="none" points="5 12.5 6.25 12.5 6.25 11.25 5 11.25"></polygon>
                <path stroke="none" fill="none" stroke-linecap="round" stroke-linejoin="round" stroke-miterlimit="10"  d="M16.875,11.875625 C16.875,15.326875 14.0775,18.125625 10.625,18.125625 C7.1725,18.125625 4.375,15.326875 4.375,11.875625 C4.375,8.424375 7.1725,5.625625 10.625,5.625625 C14.0775,5.625625 16.875,8.424375 16.875,11.875625 L16.875,11.875625 Z"></path>
                <path fill="none" stroke-linecap="round" stroke-linejoin="round" stroke-miterlimit="10" cx="8.5" cy="12.5" r="5"d="M16.875,11.875625 C16.875,15.326875 14.0775,18.125625 10.625,18.125625 C7.1725,18.125625 4.375,15.326875 4.375,11.875625 C4.375,8.424375 7.1725,5.625625 10.625,5.625625 C14.0775,5.625625 16.875,8.424375 16.875,11.875625 L16.875,11.875625 Z" ></path>
                <path fill="none" stroke-linejoin="round" stroke-miterlimit="10" d="M15.3125,15.9705 C16.4575,17.2805 18.1225,18.1255 20,18.1255 C23.4525,18.1255 26.25,15.32675 26.25,11.8755 C26.25,8.42425 23.4525,5.6255 20,5.6255 C18.1225,5.6255 16.4575,6.46925 15.3125,7.7805"></path>
                <path stroke="none" d="M8.75,16.875 L7.5,16.875 L7.5,17.25625 C7.89125,17.48375 8.31,17.66625 8.75,17.80625 L8.75,16.875 Z" ></path>
                <path stroke="none" d="M13.75,16.875 L12.5,16.875 L12.5,17.80625 C12.94,17.66625 13.35875,17.48375 13.75,17.25625 L13.75,16.875 Z" ></path>
                <path stroke="none" d="M16.25,13.75 L15,13.75 L15,15 L16.00625,15 C16.09125,14.8525 16.175,14.705 16.25,14.55 L16.25,13.75 Z" ></path>
                <path stroke="none" d="M16.005875,8.75 L14.999625,8.75 L14.999625,10 L16.249625,10 L16.249625,9.2 C16.175875,9.045 16.090875,8.8975 16.005875,8.75" ></path>
                <path stroke="none" d="M6.25,13.75 L5,13.75 L5,14.55 C5.075,14.705 5.15875,14.8525 5.24375,15 L6.25,15 L6.25,13.75 Z"></path>
                <path stroke="none" d="M6.25,8.75 L5.24375,8.75 C5.15875,8.8975 5.075,9.045 5,9.2 L5,10 L6.25,10 L6.25,8.75 Z></path>
</svg>
