<svg class="masterCardIcon" x="0px" y="0px" width="24px" height="24px" viewBox="0 0 24 24" enable-background="new 0 0 24 24" xml:space="preserve">
<path fill="none" stroke-linecap="round" stroke-linejoin="round" stroke-miterlimit="10" d="M23.5,18.5
			c0,1.1-0.899,2-2,2h-19c-1.1,0-2-0.9-2-2v-13c0-1.1,0.9-2,2-2h19c1.101,0,2,0.9,2,2V18.5z"/>
		<polygon stroke="none" points="7,9 6,9 6,10 7,10 7,9 				"/>
				<polygon stroke="none" points="11,9 10,9 10,10 11,10 11,9 				"/>
				<polygon stroke="none" points="11,11 10,11 10,12 11,12 11,11 				"/>
				<polygon stroke="none" points="11,13 10,13 10,14 11,14 11,13 				"/>
		<polygon stroke="none" points="11,15 10,15 10,16 11,16 11,15 				"/>
			<polygon stroke="none" points="7,11 6,11 6,12 7,12 7,11 				"/>
			<polygon stroke="none" points="7,13 6,13 6,14 7,14 7,13 				"/>
				<polygon stroke="none" points="7,15 6,15 6,16 7,16 7,15 				"/>
			<polygon stroke="none" points="9,10 8,10 8,11 9,11 9,10 				"/>
				<polygon stroke="none" points="9,8 8,8 8,9 9,9 9,8 				"/>
				<polygon stroke="none" points="9,12 8,12 8,13 9,13 9,12 				"/>
			<polygon stroke="none" points="13,12 12,12 12,13 13,13 13,12 				"/>
				<polygon stroke="none" points="9,14 8,14 8,15 9,15 9,14 				"/>
			<polygon stroke="none" points="9,16 8,16 8,17 9,17 9,16 				"/>
			<polygon stroke="none" points="5,12 4,12 4,13 5,13 5,12 				"/>
			<circle stroke="none" fill="none" stroke-linecap="round" stroke-linejoin="round" stroke-miterlimit="10" cx="8.5" cy="12.5" r="5"/>
			<circle fill="none" stroke-linecap="round" stroke-linejoin="round" stroke-miterlimit="10" cx="8.5" cy="12.5" r="5"/>
			<path fill="none" stroke-linejoin="round" stroke-miterlimit="10" d="M12.25,15.776
			C13.166,16.824,14.498,17.5,16,17.5c2.762,0,5-2.238,5-5s-2.238-5-5-5c-1.502,0-2.834,0.676-3.75,1.725"/>
			<path stroke="none" class="fillColor" d="M7,16.5H6v0.305c0.313,0.183,0.647,0.328,1,0.44V16.5L7,16.5z"/>
			<path stroke="none" class="fillColor" d="M11,16.5h-1v0.745c0.353-0.112,0.687-0.258,1-0.44V16.5L11,16.5z"/>
			<path stroke="none" class="fillColor" d="M13,14h-1v1h0.805c0.068-0.118,0.136-0.236,0.195-0.36V14L13,14z"/>
			<path stroke="none" class="fillColor" d="M12.805,10H12v1h1v-0.64C12.94,10.236,12.873,10.118,12.805,10L12.805,10z"/>
			<path stroke="none" class="fillColor" d="M5,14H4v0.64c0.06,0.124,0.127,0.242,0.195,0.36H5V14L5,14z"/>
			<path stroke="none" class="fillColor" d="M5,10H4.195C4.127,10.118,4.06,10.236,4,10.36V11h1V10L5,10z"/>
</svg>
