<svg version="1.1" width="24px" height="24px" viewBox="0 0 24 24" enable-background="new 0 0 24 24" xml:space="preserve">
		<path fill="none" stroke-linejoin="round" stroke-miterlimit="10" d="M1.711,22.288
			c1.426,1.427,3.676,1.603,5.307,0.418l13.991-10.164c1.484-1.215,2.386-3,2.481-4.916c0.095-1.915-0.624-3.781-1.979-5.137
			c-1.356-1.356-3.223-2.075-5.138-1.978c-1.916,0.094-3.701,0.996-4.916,2.48L1.294,16.982C0.108,18.613,0.286,20.863,1.711,22.288
			z"/>
		<circle fill="none" stroke-linejoin="round" stroke-miterlimit="10" cx="5" cy="19" r="2.5"/>
		<circle fill="none" stroke-linejoin="round" stroke-miterlimit="10" cx="17" cy="7" r="4.5"/>
		<circle fill="none" stroke-linejoin="round" stroke-miterlimit="10" cx="17" cy="7" r="2.5"/>
			<path d="M17,6c-0.553,0-1,0.447-1,1c0,0.551,0.447,1,1,1s1-0.449,1-1C18,6.447,17.553,6,17,6L17,6z"/>
			<path d="M5,18c-0.553,0-1,0.447-1,1c0,0.551,0.447,1,1,1s1-0.449,1-1C6,18.447,5.553,18,5,18L5,18z"/>
</svg>
