<svg width="25px" height="25px" viewBox="0 0 25 25" version="1.1" xmlns="http://www.w3.org/2000/svg" xmlns:xlink="http://www.w3.org/1999/xlink">
    <g fill="none" fill-rule="evenodd">
            <path d="M16.1648328,8.58064415 C14.5182753,6.93408657 14.5205776,4.26953386 16.1650795,2.62503196 C17.8095814,0.980530052 20.4753382,0.977023678 22.1218957,2.62358126 C23.7684533,4.27013884 23.7649469,6.93589557 22.120445,8.58039748 C20.4759431,10.2248994 17.8113904,10.2272017 16.1648328,8.58064415 Z M3.50692289,21.2402515 C1.03942665,18.7727552 1.03942665,14.7721534 3.50692289,12.3046571 C5.97441913,9.8371609 9.97502099,9.8371609 12.4425172,12.3046571 C14.9100135,14.7721534 14.9100135,18.7727552 12.4425172,21.2402515 C9.97502099,23.7077477 5.97441913,23.7077477 3.50692289,21.2402515 Z M16.5603375,2.27445301 L4.3665639,11.5790446 L16.5603375,2.27445301 Z M22.4727221,8.18683762 L13.1648546,20.3838799 L22.4727221,8.18683762 Z" ></path>
            <path d="M5.74082147,19.0063529 C6.97456959,20.240101 8.97487052,20.240101 10.2086186,19.0063529 C11.4423668,17.7726048 11.4423668,15.7723038 10.2086186,14.5385557 C8.97487052,13.3048076 6.97456959,13.3048076 5.74082147,14.5385557 C4.50707335,15.7723038 4.50707335,17.7726048 5.74082147,19.0063529 Z"></path>
            <path d="M18.3945704,6.35260394 C18.8066687,6.76470221 19.4740036,6.76243646 19.8861019,6.35033819 C20.2982002,5.93823992 20.3009441,5.2704268 19.8888458,4.85832853 C19.4767476,4.44623026 18.8089344,4.4489742 18.3968362,4.86107247 C17.9847379,5.27317074 17.9824722,5.94050567 18.3945704,6.35260394 Z" ></path>
    </g>
</svg>
