<svg version="1.1" xmlns="http://www.w3.org/2000/svg" xmlns:xlink="http://www.w3.org/1999/xlink" x="0px" y="0px" width="24px"
	 height="24px" viewBox="0 0 24 24" enable-background="new 0 0 24 24" xml:space="preserve">
			<path d="M17.5,24c3.59,0,6.5-2.91,6.5-6.5c0-3.589-2.91-6.5-6.5-6.5S11,13.911,11,17.5C11,21.09,13.91,24,17.5,24z M15,18
				c0.195-0.195,0.512-0.195,0.707,0L17,19.293V14.5c0-0.276,0.224-0.5,0.5-0.5s0.5,0.224,0.5,0.5v4.793L19.293,18
				c0.195-0.195,0.512-0.195,0.707,0s0.195,0.512,0,0.706l-2.146,2.147c-0.195,0.195-0.512,0.195-0.707,0L15,18.706
				C14.805,18.512,14.805,18.195,15,18z"/>
			<path d="M4.5,2C4.224,2,4,2.224,4,2.5S4.224,3,4.5,3h16C20.776,3,21,2.776,21,2.5S20.776,2,20.5,2H4.5z"/>
			<path d="M10,17.5c0-4.142,3.357-7.5,7.5-7.5c1.691,0,3.246,0.566,4.5,1.511V4.5C22,4.224,21.776,4,21.5,4h-17
				C3.673,4,3,3.327,3,2.5S3.673,1,4.5,1h17C21.776,1,22,0.776,22,0.5S21.776,0,21.5,0h-17C3.121,0,2,1.122,2,2.5v19
				C2,22.878,3.121,24,4.5,24h9.269C11.519,22.706,10,20.283,10,17.5z"/>
</svg>
