<svg width="31px" height="31px" viewBox="0 0 31 31">
            <g fill="none" transform="translate(0.000000, 5.000000)">
                <path d="M16.25,23.125 L6.875,23.125 C3.4225,23.125 0.625,20.3275 0.625,16.875 L0.625,12.7075 C0.625,5.625 5.625,4.375 8.125,4.375 L11.875,4.375 C13.09,4.375 14.375,5 14.375,6.25 L14.375,6.875 C14.375,8.125 13.125,8.75 11.875,8.75 L9.375,8.75 C9.375,8.75 8.125,13.125 5.625,13.125"></path>
                <path d="M13.125,15.625 L21.25,15.625 C22.285,15.625 23.125,16.465 23.125,17.5 C23.125,18.53625 22.285,19.375 21.25,19.375 L16.25,19.375"></path>
                <path d="M13.125,19.375 L16.25,19.375 C17.285,19.375 18.125,20.215 18.125,21.25 C18.125,22.28625 17.285,23.125 16.25,23.125 L14.375,23.125"></path>
                <path d="M29.375,5.625 L14.245,5.625"></path>
                <path d="M6.875,4.472 L6.875,2.4995 C6.875,1.4645 7.715,0.6245 8.75,0.6245 L27.5,0.6245 C28.535,0.6245 29.375,1.4645 29.375,2.4995 L29.375,13.7495 C29.375,14.78575 28.535,15.6245 27.5,15.6245 L8.75,15.6245 C7.715,15.6245 6.875,14.78575 6.875,13.7495 L6.875,12.7345"></path>
                <path d="M26.875,8.125 L23.125,8.125" ></path>
            </g>
</svg>
