<svg x="0px" y="0px" width="24px" height="24px" viewBox="0 0 24 24" enable-background="new 0 0 24 24" xml:space="preserve">
		<path d="M16,17.499l0-3.792l4.5-4.5l0.646,0.647c0.196,0.195,0.512,0.195,0.707,0l2-2c0.195-0.195,0.196-0.513,0-0.708
			l-7.001-7.001c-0.195-0.193-0.511-0.193-0.707,0l-1.999,2.001c-0.195,0.195-0.195,0.513,0,0.708L14.793,3.5l-4.5,4.5H6.5
			C6.369,8,6.24,8.053,6.147,8.144l-1.5,1.5c-0.195,0.196-0.196,0.514,0,0.709L8.793,14.5l-8.647,8.645
			c-0.195,0.196-0.194,0.514,0,0.709c0.195,0.195,0.512,0.195,0.707,0l8.647-8.647l4.145,4.145c0.195,0.197,0.512,0.197,0.707,0.002
			l1.5-1.5C15.947,17.761,16,17.631,16,17.499z"/>
</svg>
