<?xml version="1.0" encoding="UTF-8"?>
<svg width="40px" height="40px" viewBox="0 0 40 40" version="1.1" xmlns="http://www.w3.org/2000/svg" xmlns:xlink="http://www.w3.org/1999/xlink">
    <g id="Symbols" stroke="none" stroke-width="1" fill="none" fill-rule="evenodd">
        <g id="W-time/new/mine-Copy" transform="translate(-998.000000, -15.000000)">
            <g id="Group-4" transform="translate(998.000000, 15.000000)">
                <rect id="Rectangle-6" fill="#36C79B" x="0" y="0" width="40" height="40" rx="20"></rect>
                <path d="M12.6601767,15.2078618 L24.0979908,13.7907242 L24.0979908,13.7907242 C24.6460846,13.7228157 25.1454532,14.1120829 25.2133617,14.6601767 C25.2234794,14.7418373 25.2234794,14.8244345 25.2133617,14.9060951 L23.796224,26.3439091 L23.796224,26.3439091 C23.7283156,26.892003 23.228947,27.2812701 22.6808531,27.2133617 C22.4597962,27.1859729 22.2542116,27.0855628 22.0967055,26.9280567 L12.0760291,16.9073803 L12.0760291,16.9073803 C11.6855048,16.516856 11.6855048,15.8836911 12.0760291,15.4931668 C12.2335352,15.3356607 12.4391198,15.2352506 12.6601767,15.2078618 Z" id="Rectangle-7" fill="#FFFFFF" opacity="0.83372962" transform="translate(18.502043, 20.502043) rotate(-315.000000) translate(-18.502043, -20.502043) "></path>
            </g>
        </g>
    </g>
</svg>
