<svg class="account-settings" x="0px" y="0px" viewBox="0 0 24 24" xml:space="preserve">
		<path d="M23.5,15c-1.657,0-3-1.343-3-3c0-1.656,1.343-3,3-3V4.5h-23V9c1.656,0,3,1.344,3,3c0,1.657-1.344,3-3,3v4.5h23V15z"/>
				<polygon class="no-stroke" points="19,6 18,6 18,7 19,7 19,6 				"/>
				<polygon class="no-stroke" points="19,8 18,8 18,9 19,9 19,8 				"/>
				<polygon class="no-stroke" points="19,10 18,10 18,11 19,11 19,10 				"/>
				<polygon class="no-stroke" points="19,13 18,13 18,14 19,14 19,13 				"/>
				<polygon class="no-stroke" points="19,15 18,15 18,16 19,16 19,15 				"/>
				<polygon class="no-stroke" points="19,17 18,17 18,18 19,18 19,17 				"/>
			<line x1="7" y1="16" x2="15" y2="8"/>
			<circle cx="8" cy="9" r="1.5"/>
			<circle cx="14" cy="15" r="1.5"/>
</svg>
