<svg version="1.1" xmlns="http://www.w3.org/2000/svg" xmlns:xlink="http://www.w3.org/1999/xlink" x="0px" y="0px" width="24px"
	 height="24px" viewBox="0 0 24 24" enable-background="new 0 0 24 24" xml:space="preserve">
			<path fill="none" stroke-linecap="round" stroke-linejoin="round" stroke-miterlimit="10" d="M5.5,17.5h-3
				c-1.1,0-2-0.9-2-2v-6c0-1.1,0.9-2,2-2h19c1.101,0,2,0.9,2,2v6c0,1.1-0.899,2-2,2h-3"/>
			<polyline class = "first-polyline" fill="none" stroke-linecap="round" stroke-linejoin="round" stroke-miterlimit="10" points="5.5,5.5 
				5.5,1.5 15.5,1.5 18.5,4.5 18.5,5.5 			"/>
			
				<rect x="5.5" y="14.5" fill="none" stroke-linecap="round" stroke-linejoin="round" stroke-miterlimit="10" width="13" height="8"/>
			
				<circle fill="none" stroke-linecap="round" stroke-linejoin="round" stroke-miterlimit="10" cx="3.5" cy="10.5" r="1"/>
			
				<line fill="none" stroke-linecap="round" stroke-linejoin="round" stroke-miterlimit="10" x1="7.5" y1="16.5" x2="16.5" y2="16.5"/>
			
				<line fill="none" stroke-linecap="round" stroke-linejoin="round" stroke-miterlimit="10" x1="7.5" y1="18.5" x2="16.5" y2="18.5"/>
			
				<line fill="none" stroke-linecap="round" stroke-linejoin="round" stroke-miterlimit="10" x1="7.5" y1="20.5" x2="16.5" y2="20.5"/>
			<polyline fill="none" stroke-linecap="round" stroke-linejoin="round" stroke-miterlimit="10" points="
				15.5,1.5 15.5,4.5 18.5,4.5 			"/>
</svg>
