<svg xmlns="http://www.w3.org/2000/svg" viewBox="0 0 24 24">
<path  d="M14,7a7,7,0,1,0-7,7A7.009,7.009,0,0,0,14,7ZM6.25,11.25A.25.25,0,0,0,6,11H5.375a.75.75,0,0,1,0-1.5h2.2a.7.7,0,0,0,.261-1.356L5.6,7.249a2.2,2.2,0,0,1,.439-4.206A.248.248,0,0,0,6.25,2.8V2.4a.75.75,0,0,1,1.5,0V2.75A.25.25,0,0,0,8,3h.625a.75.75,0,0,1,0,1.5h-2.2a.7.7,0,0,0-.261,1.356l2.235.9a2.2,2.2,0,0,1-.439,4.206.248.248,0,0,0-.207.246v.4a.75.75,0,0,1-1.5,0Z"/><path
    d="M24,11a.5.5,0,0,0-.5-.5h-5a.5.5,0,0,0-.354.854l1.415,1.414a.251.251,0,0,1-.007.361l-4.583,4.225a.249.249,0,0,1-.325.012l-2.9-2.317a2.154,2.154,0,0,0-2.771.071l-.219.194-7.314,6.5a1.25,1.25,0,0,0,1.66,1.87l7.155-6.36a.251.251,0,0,1,.323-.009l2.9,2.324a2.164,2.164,0,0,0,2.805-.1h0l5.047-4.653a.251.251,0,0,1,.347.007l1.461,1.462A.5.5,0,0,0,24,16Z"/></svg>
