<svg version="1.1" xmlns="http://www.w3.org/2000/svg" xmlns:xlink="http://www.w3.org/1999/xlink" x="0px" y="0px" width="24px"
	 height="24px" viewBox="0 0 24 24" enable-background="new 0 0 24 24" xml:space="preserve">
			<circle fill="none" stroke-linecap="round" stroke-linejoin="round" stroke-miterlimit="10" cx="16" cy="8" r="7.5"/>
		
			<line fill="none" stroke-linecap="round" stroke-linejoin="round" stroke-miterlimit="10" x1="15.5" y1="11" x2="15.5" y2="12"/>
		
			<line fill="none" stroke-linecap="round" stroke-linejoin="round" stroke-miterlimit="10" x1="15.5" y1="4" x2="15.5" y2="5"/>
		<path fill="none" stroke-linecap="round" stroke-linejoin="round" stroke-miterlimit="10" d="M14,9.5
			c0,0.828,0.672,1.5,1.5,1.5S17,10.328,17,9.5C17,8.671,16.328,8,15.5,8S14,7.328,14,6.5C14,5.671,14.672,5,15.5,5S17,5.671,17,6.5
			"/>
		
			<line fill="none" stroke-linecap="round" stroke-linejoin="round" stroke-miterlimit="10" x1="7.5" y1="19" x2="7.5" y2="20"/>
		
			<line fill="none" stroke-linecap="round" stroke-linejoin="round" stroke-miterlimit="10" x1="7.5" y1="12" x2="7.5" y2="13"/>
		<path fill="none" stroke-linecap="round" stroke-linejoin="round" stroke-miterlimit="10" d="M6,17.5
			C6,18.328,6.672,19,7.5,19S9,18.328,9,17.5C9,16.671,8.328,16,7.5,16S6,15.328,6,14.5C6,13.671,6.672,13,7.5,13S9,13.671,9,14.5"
			/>
		<path fill="none" stroke-linecap="round" stroke-linejoin="round" stroke-miterlimit="10" d="M8.526,8.526
			C4.067,8.226,0.5,11.747,0.5,16c0,4.142,3.358,7.5,7.5,7.5c4.249,0,7.773-3.56,7.474-8.026"/>
</svg>
