<svg class="account-settings" x="0px" y="0px" viewBox="0 0 24 24" xml:space="preserve">
			<path d="M23.5,21.5c0,0.552-0.447,1-1,1h-21c-0.553,0-1-0.448-1-1v-20c0-0.552,0.447-1,1-1h21c0.553,0,1,0.448,1,1V21.5z"/>
				<circle cx="12" cy="5.5" r="2"/>
				<line x1="13.998" y1="5.5" x2="20.521" y2="5.5"/>
				<line x1="3.521" y1="5.5" x2="9.996" y2="5.5"/>
				<circle cx="8" cy="11.5" r="2"/>
				<line x1="9.996" y1="11.5" x2="20.521" y2="11.5"/>
				<line x1="3.521" y1="11.5" x2="5.996" y2="11.5"/>
				<circle cx="10" cy="17.5" r="2"/>
				<line x1="11.996" y1="17.5" x2="20.521" y2="17.5"/>
				<line x1="3.521" y1="17.5" x2="8" y2="17.5"/>
</svg>
