<svg version="1.1" xmlns="http://www.w3.org/2000/svg" xmlns:xlink="http://www.w3.org/1999/xlink" x="0px" y="0px" width="24px"
	 height="24px" viewBox="0 0 24 24" enable-background="new 0 0 24 24" xml:space="preserve">
				<rect x="0.5" y="0.5" fill="none" stroke-linecap="round" stroke-linejoin="round" stroke-miterlimit="10" width="23" height="23"/>
			<path fill="none" stroke-linecap="round" stroke-linejoin="round" stroke-miterlimit="10" d="M3.5,6.5
				c0,1.657,1.344,3,3,3h11c1.656,0,3-1.343,3-3c0-1.657-1.344-3-3-3h-11C4.844,3.5,3.5,4.843,3.5,6.5z"/>
			<path fill="none" stroke-linecap="round" stroke-linejoin="round" stroke-miterlimit="10" d="M3.5,17.5
				c0,1.657,1.344,3,3,3h11c1.656,0,3-1.343,3-3c0-1.657-1.344-3-3-3h-11C4.844,14.5,3.5,15.843,3.5,17.5z"/>
			
				<circle fill="none" stroke-linecap="round" stroke-linejoin="round" stroke-miterlimit="10" cx="6.5" cy="6.5" r="3"/>
			
				<circle fill="none" stroke-linecap="round" stroke-linejoin="round" stroke-miterlimit="10" cx="17.5" cy="17.5" r="3"/>
</svg>
