<svg width="31px" height="31px" viewBox="0 0 31 31">
            <g fill="none" transform="translate(2.000000, 4.000000)">
                <polyline points="24.18975 9.3801375 24.18975 23.0623875 2.81475 23.0623875 2.81475 9.3801375"></polyline>
                <polygon points="5.06475 19.6875 14.06475 19.6875 14.06475 12.9375 5.06475 12.9375"></polygon>
                <polygon points="16.31475 23.0625 21.93975 23.0625 21.93975 12.9375 16.31475 12.9375"></polygon>
                <polygon points="24.18975 0.5625 2.81475 0.5625 0.56475 5.0625 26.43975 5.0625"></polygon>
                <path d="M26.43975,6.1875 C26.43975,8.77725 23.33475,10.944 20.81475,8.4375 C19.179,11.03625 15.5745,11.50875 13.50225,9.1575 C11.4075,11.539125 7.804125,11.00025 6.18975,8.4375 C3.699,10.91925 0.56475,8.805375 0.56475,6.1875 L0.56475,5.0625 L26.43975,5.0625 L26.43975,6.1875 L26.43975,6.1875 Z"></path>
                <polyline points="6.18975 8.4375 6.18975 5.0625 7.31475 0.5625"></polyline>
                <polyline points="13.50225 9.1636875 13.50225 5.0619375 13.50225 0.5619375"></polyline>
                <polyline points="20.81475 8.4375 20.81475 5.0625 19.68975 0.5625"></polyline>
                <path d="M19.68975,18 C19.37925,18 19.12725,18.252 19.12725,18.5625 C19.12725,18.874125 19.37925,19.125 19.68975,19.125 C20.00025,19.125 20.25225,18.874125 20.25225,18.5625 C20.25225,18.252 20.00025,18 19.68975,18"></path>
            </g>
</svg>
