<svg x="0px" y="0px" width="24px" height="24px" viewBox="0 0 24 24" enable-background="new 0 0 24 24" xml:space="preserve">
	 <g fill="none" fill-rule="evenodd" stroke-linecap="round">
				 <path d="M8.4995,10.5 C8.4995,12.709 6.7085,14.5 4.4995,14.5 C2.2925,14.5 0.4995,12.709 0.4995,10.5 C0.4995,8.291 2.2925,6.5 4.4995,6.5 C6.7085,6.5 8.4995,8.291 8.4995,10.5 L8.4995,10.5 Z" stroke-linejoin="round"></path>
				 <path d="M23.4995,10.5 C23.4995,12.709 21.7085,14.5 19.4995,14.5 C17.2925,14.5 15.4995,12.709 15.4995,10.5 C15.4995,8.291 17.2925,6.5 19.4995,6.5 C21.7085,6.5 23.4995,8.291 23.4995,10.5 L23.4995,10.5 Z" stroke-linejoin="round"></path>
				 <polyline  stroke-linejoin="round" points="19.4995 10.5 15.9995 1 13.4447021 0.5"></polyline>
				 <path d="M20.40448,4.54974365 C16.2787882,4.6992391 14.2159424,6.00227865 14.2159424,8.4588623 C14.2159424,11.0436401 12.8619385,11.036438 12.0305176,11.036438 C11.1990967,11.036438 9.574646,11.039856 9.574646,8.37823486 C9.56231689,7.83994548 9.56231689,7.32059733 9.574646,6.82019043 L3.065979,3.5357666 L4.5970459,2.4798584 L9.574646,4.54974365 C11.960673,3.44150798 14.3489583,2.91548665 16.739502,2.97167969" stroke-linejoin="round"></path>
				 <path d="M4.81958008,10.2697754 L9.52539063,8.70043945"  stroke-linejoin="round"></path>
				 <path d="M9.57702637,6.86975098 L12.8089475,6.86975098" ></path>
				 <path d="M11.8282471,9.00360107 L14.1009351,9.00360107"></path>
	 </g>
</svg>
