<svg version="1.1" x="0px" y="0px" width="24px" height="24px" viewBox="0 0 24 24" enable-background="new 0 0 24 24" xml:space="preserve">

<line fill="none" stroke-linecap="round" stroke-linejoin="round" stroke-miterlimit="10" x1="5.25" y1="12.373" x2="2.25" y2="12.373"/>
<line fill="none" stroke-linecap="round" stroke-linejoin="round" stroke-miterlimit="10" x1="5.25" y1="15.373" x2="3.75" y2="16.873"/>
<line fill="none" stroke-linecap="round" stroke-linejoin="round" stroke-miterlimit="10" x1="5.25" y1="9.373" x2="3.75" y2="7.873"/>
<line fill="none" stroke-linecap="round" stroke-linejoin="round" stroke-miterlimit="10" x1="18.75" y1="12.373" x2="21.75" y2="12.373"/>
<line fill="none" stroke-linecap="round" stroke-linejoin="round" stroke-miterlimit="10" x1="18.75" y1="15.373" x2="20.25" y2="16.873"/>
<line fill="none" stroke-linecap="round" stroke-linejoin="round" stroke-miterlimit="10" x1="18.75" y1="9.373" x2="20.25" y2="7.873"/>
<path fill="none" stroke-linecap="round" stroke-linejoin="round" stroke-miterlimit="10" d="M8.25,9.373v-4.5A3.762,3.762,0,0,1,12,1.123h0a3.761,3.761,0,0,1,3.75,3.75v5.25A3.763,3.763,0,0,1,13.5,13.558a3.709,3.709,0,0,1-1.5.315"/>
<path fill="none" stroke-linecap="round" stroke-linejoin="round" stroke-miterlimit="10" d="M15.75,14.623v4.5A3.76,3.76,0,0,1,12,22.873h0a3.761,3.761,0,0,1-3.75-3.75v-4.5A3.762,3.762,0,0,1,12,10.873"/>
</svg>
