<svg class="account-settings" x="0px" y="0px" viewBox="0 0 24 24" xml:space="preserve">
	<path d="M20,20c0,0.277-0.224,0.5-0.5,0.5l0,0c-0.276,0-0.5-0.223-0.5-0.5l0,0c0-0.275,0.224-0.5,0.5-0.5l0,0C19.776,19.5,20,19.725,20,20L20,20z"/>
					<rect x="15.5" y="17.5" width="8" height="6"/>
					<line x1="19.5" y1="21.5" x2="19.5" y2="20.5"/>
				<path d="M16.5,17.5v-1	c0-1.656,1.343-3,3-3c1.656,0,3,1.344,3,3v1"/>
					<line x1="12.5" y1="14.5" x2="12.5" y2="11.696"/>
				<path d="M7.5,11.696V14.5l-5.009,1.789C1.297,16.716,0.5,17.847,0.5,19.114V21.5h12"/>
				<ellipse cx="10" cy="6.5" rx="5" ry="6"/>
				<path d="M14.953,5.953C14.785,5.974,14.669,5.967,14.5,6c-1.703,0.328-2.797-0.289-3.734-1.93C10.203,5.148,8.444,6,7,6C6.289,6,5.677,5.854,5.064,5.534"/>
</svg>
