<svg x="0px" y="0px" width="24px"
	 height="24px" viewBox="0 0 24 24" enable-background="new 0 0 24 24" xml:space="preserve">
			<polyline fill="none"  stroke-linecap="round" stroke-linejoin="round" stroke-miterlimit="10" points="
				16.5,6.5 23.5,6.5 23.5,22.5 0.5,22.5 0.5,6.5 7.5,6.5 			"/>
				<line fill="none"  stroke-linecap="round" stroke-linejoin="round" stroke-miterlimit="10" x1="0.5" y1="10.5" x2="23.5" y2="10.5"/>
				<line fill="none"  stroke-linecap="round" stroke-linejoin="round" stroke-miterlimit="10" x1="12.5" y1="14.5" x2="16.5" y2="14.5"/>
				<line fill="none"  stroke-linecap="round" stroke-linejoin="round" stroke-miterlimit="10" x1="12.5" y1="16.5" x2="18.5" y2="16.5"/>
				<line fill="none"  stroke-linecap="round" stroke-linejoin="round" stroke-miterlimit="10" x1="12.5" y1="18.5" x2="17.5" y2="18.5"/>
			<path fill="none"  stroke-linecap="round" stroke-linejoin="round" stroke-miterlimit="10" d="M12,1.5
				c-1.381,0-2.5,1.119-2.5,2.5v4.5h5V4C14.5,2.619,13.381,1.5,12,1.5z"/>
				<circle fill="none"  stroke-linecap="round" stroke-linejoin="round" stroke-miterlimit="10" cx="7" cy="15" r="1.5"/>
			<path fill="none"  stroke-linecap="round" stroke-linejoin="round" stroke-miterlimit="10" d="M9.5,19.5h-5
				c0-1.657,1.119-3,2.5-3S9.5,17.843,9.5,19.5z"/>
</svg>
