<svg width="31px" height="31px" viewBox="0 0 31 31">
            <g fill="none" stroke-linecap="round" stroke-linejoin="round" stroke-miterlimit="10"  transform="translate(0.000000, 4.000000)">
                <path d="M29.375,19.375 C29.375,20.75 28.25125,21.875 26.875,21.875 L3.125,21.875 C1.75,21.875 0.625,20.75 0.625,19.375 L0.625,3.125 C0.625,1.75 1.75,0.625 3.125,0.625 L26.875,0.625 C28.25125,0.625 29.375,1.75 29.375,3.125 L29.375,19.375 L29.375,19.375 Z"></path>
                <polyline points="6.191375 8.75 7.792625 8.75 8.300125 13.75 9.160125 13.75 11.621375 8.61375"></polyline>
                <path d="M13.88675,8.710875 L12.87175,13.788375"></path>
                <path d="M18.535125,8.652375 C18.535125,8.652375 16.816375,8.203625 16.230125,9.179875 C15.643875,10.156125 16.562625,10.781125 17.167625,11.152375 C17.773875,11.523625 18.437625,12.089875 18.261375,12.753625 C18.086375,13.418625 17.343875,14.394875 15.390125,13.711125" ></path>
                <polyline points="20 13.789 22.42125 8.73025 23.34 8.75025 23.75 13.7115"></polyline>
                <path d="M20.742125,12.285125 L23.652125,12.285125" ></path>
            </g>
</svg>
