<svg x="0px" y="0px" width="24px" height="24px" viewBox="0 0 24 24" enable-background="new 0 0 24 24" xml:space="preserve">
			<path fill="none" stroke-linecap="round" stroke-linejoin="round" stroke-miterlimit="10" d="M23.5,18.5
				c0,1.1-0.899,2-2,2h-19c-1.1,0-2-0.9-2-2v-13c0-1.1,0.9-2,2-2h19c1.101,0,2,0.9,2,2V18.5z"/>
			<polyline fill="none" stroke-linecap="round" stroke-linejoin="round" stroke-miterlimit="10" points="
				4.953,10 6.234,10 6.641,14 7.328,14 9.297,9.891 			"/>

				<line fill="none" stroke-linecap="round" stroke-linejoin="round" stroke-miterlimit="10" x1="11.109" y1="9.969" x2="10.297" y2="14.031"/>
			<path fill="none" stroke-linecap="round" stroke-linejoin="round" stroke-miterlimit="10" d="M14.828,9.922
				c0,0-1.375-0.359-1.844,0.422s0.266,1.281,0.75,1.578s1.016,0.75,0.875,1.281s-0.734,1.312-2.297,0.766"/>
			<polyline fill="none" stroke-linecap="round" stroke-linejoin="round" stroke-miterlimit="10" points="
				16,14.031 17.938,9.984 18.672,10 19,13.969 			"/>
				<line fill="none" stroke-linecap="round" stroke-linejoin="round" stroke-miterlimit="10" x1="16.594" y1="12.828" x2="18.922" y2="12.828"/>
</svg>
