<svg width="22" height="22" viewBox="0 0 22 22" fill="none" xmlns="http://www.w3.org/2000/svg">
<path d="M22 1.43478C22 1.05425 21.8488 0.689312 21.5798 0.420238C21.3107 0.151164 20.9457 0 20.5652 0H1.43478C1.05425 0 0.689312 0.151164 0.420238 0.420238C0.151164 0.689312 0 1.05425 0 1.43478V20.5652C0 20.9457 0.151164 21.3107 0.420238 21.5798C0.689312 21.8488 1.05425 22 1.43478 22H20.5652C20.9457 22 21.3107 21.8488 21.5798 21.5798C21.8488 21.3107 22 20.9457 22 20.5652V1.43478ZM5.26087 11.9565C5.00718 11.9565 4.76389 11.8557 4.58451 11.6764C4.40512 11.497 4.30435 11.2537 4.30435 11C4.30435 10.7463 4.40512 10.503 4.58451 10.3236C4.76389 10.1443 5.00718 10.0435 5.26087 10.0435H9.80435C9.86777 10.0435 9.92859 10.0183 9.97344 9.97344C10.0183 9.92859 10.0435 9.86777 10.0435 9.80435V5.26087C10.0435 5.00718 10.1443 4.76389 10.3236 4.58451C10.503 4.40512 10.7463 4.30435 11 4.30435C11.2537 4.30435 11.497 4.40512 11.6764 4.58451C11.8557 4.76389 11.9565 5.00718 11.9565 5.26087V9.80435C11.9565 9.86777 11.9817 9.92859 12.0266 9.97344C12.0714 10.0183 12.1322 10.0435 12.1957 10.0435H16.7391C16.9928 10.0435 17.2361 10.1443 17.4155 10.3236C17.5949 10.503 17.6957 10.7463 17.6957 11C17.6957 11.2537 17.5949 11.497 17.4155 11.6764C17.2361 11.8557 16.9928 11.9565 16.7391 11.9565H12.1957C12.1322 11.9565 12.0714 11.9817 12.0266 12.0266C11.9817 12.0714 11.9565 12.1322 11.9565 12.1957V16.7391C11.9565 16.9928 11.8557 17.2361 11.6764 17.4155C11.497 17.5949 11.2537 17.6957 11 17.6957C10.7463 17.6957 10.503 17.5949 10.3236 17.4155C10.1443 17.2361 10.0435 16.9928 10.0435 16.7391V12.1957C10.0435 12.1322 10.0183 12.0714 9.97344 12.0266C9.92859 11.9817 9.86777 11.9565 9.80435 11.9565H5.26087Z" fill="white"/>
</svg>
