<svg width="31" height="31" viewBox="0 0 31 31" fill="none" xmlns="http://www.w3.org/2000/svg">
<path d="M19.4522 21.7857C19.5445 21.7857 19.6348 21.8131 19.7115 21.8644C19.7883 21.9157 19.8482 21.9886 19.8835 22.0739C19.9188 22.1592 19.9281 22.2531 19.9101 22.3436C19.892 22.4342 19.8476 22.5174 19.7823 22.5826C19.717 22.6479 19.6338 22.6924 19.5433 22.7104C19.4527 22.7284 19.3588 22.7192 19.2735 22.6838C19.1882 22.6485 19.1153 22.5887 19.064 22.5119C19.0127 22.4351 18.9854 22.3449 18.9854 22.2525C18.9854 22.1287 19.0345 22.01 19.1221 21.9224C19.2096 21.8349 19.3284 21.7857 19.4522 21.7857" stroke="#3384FF" stroke-width="1.5" stroke-linecap="round" stroke-linejoin="round"/>
<path d="M19.4522 25.5204C19.5445 25.5204 19.6348 25.5478 19.7115 25.5991C19.7883 25.6504 19.8482 25.7233 19.8835 25.8086C19.9188 25.8939 19.9281 25.9878 19.9101 26.0783C19.892 26.1689 19.8476 26.2521 19.7823 26.3174C19.717 26.3826 19.6338 26.4271 19.5433 26.4451C19.4527 26.4631 19.3588 26.4539 19.2735 26.4186C19.1882 26.3832 19.1153 26.3234 19.064 26.2466C19.0127 26.1698 18.9854 26.0796 18.9854 25.9873C18.9854 25.8634 19.0345 25.7447 19.1221 25.6571C19.2096 25.5696 19.3284 25.5204 19.4522 25.5204" stroke="#3384FF" stroke-width="1.5" stroke-linecap="round" stroke-linejoin="round"/>
<path d="M24.1202 21.7857C24.2125 21.7857 24.3027 21.8131 24.3795 21.8644C24.4563 21.9157 24.5161 21.9886 24.5515 22.0739C24.5868 22.1592 24.596 22.2531 24.578 22.3436C24.56 22.4342 24.5155 22.5174 24.4503 22.5826C24.385 22.6479 24.3018 22.6924 24.2112 22.7104C24.1207 22.7284 24.0268 22.7192 23.9415 22.6838C23.8562 22.6485 23.7833 22.5887 23.732 22.5119C23.6807 22.4351 23.6533 22.3449 23.6533 22.2525C23.6533 22.1287 23.7025 22.01 23.7901 21.9224C23.8776 21.8349 23.9963 21.7857 24.1202 21.7857" stroke="#3384FF" stroke-width="1.5" stroke-linecap="round" stroke-linejoin="round"/>
<path d="M24.1202 25.5204C24.2125 25.5204 24.3027 25.5478 24.3795 25.5991C24.4563 25.6504 24.5161 25.7233 24.5515 25.8086C24.5868 25.8939 24.596 25.9878 24.578 26.0783C24.56 26.1689 24.5155 26.2521 24.4503 26.3174C24.385 26.3826 24.3018 26.4271 24.2112 26.4451C24.1207 26.4631 24.0268 26.4539 23.9415 26.4186C23.8562 26.3832 23.7833 26.3234 23.732 26.2466C23.6807 26.1698 23.6533 26.0796 23.6533 25.9873C23.6533 25.8634 23.7025 25.7447 23.7901 25.6571C23.8776 25.5696 23.9963 25.5204 24.1202 25.5204" stroke="#3384FF" stroke-width="1.5" stroke-linecap="round" stroke-linejoin="round"/>
<path d="M25.5209 17.4286C25.5209 17.868 25.2545 18.051 24.9868 18.051H18.5856C18.3179 18.051 18.0527 17.8469 18.0527 17.4062V14.9388C18.0527 14.4981 18.3191 14.3163 18.5868 14.3163H24.9881C25.2557 14.3163 25.5221 14.4981 25.5221 14.9388L25.5209 17.4286Z" stroke="#3384FF" stroke-width="1.5" stroke-linecap="round" stroke-linejoin="round"/>
<path d="M27.8111 10.5816H15.7605C14.9629 10.5816 14.3164 11.2282 14.3164 12.0257V27.811C14.3164 28.6086 14.9629 29.2551 15.7605 29.2551H27.8111C28.6086 29.2551 29.2552 28.6086 29.2552 27.811V12.0257C29.2552 11.2282 28.6086 10.5816 27.8111 10.5816Z" stroke="#3384FF" stroke-width="1.5" stroke-linecap="round" stroke-linejoin="round"/>
<path d="M10.5819 16.1837H3.11246C2.61721 16.1837 2.14225 15.9869 1.79205 15.6367C1.44186 15.2866 1.24512 14.8116 1.24512 14.3163V3.11225C1.24512 2.617 1.44186 2.14203 1.79205 1.79184C2.14225 1.44164 2.61721 1.2449 3.11246 1.2449H23.6533C24.1485 1.2449 24.6235 1.44164 24.9737 1.79184C25.3239 2.14203 25.5206 2.617 25.5206 3.11225V6.84694" stroke="#3384FF" stroke-width="1.5" stroke-linecap="round" stroke-linejoin="round"/>
<path d="M10.1526 10.5891C9.90352 10.1577 9.74329 9.68074 9.68134 9.18642C9.61938 8.6921 9.65695 8.19039 9.79183 7.71081C9.92671 7.23123 10.1562 6.78349 10.4667 6.39394C10.7773 6.00439 11.1626 5.68091 11.6001 5.44254C12.0375 5.20417 12.5182 5.05573 13.0139 5.00596C13.5096 4.95619 14.0103 5.0061 14.4864 5.15274C14.9625 5.29939 15.4045 5.53981 15.7862 5.85984C16.168 6.17988 16.4819 6.57307 16.7095 7.01626" stroke="#3384FF" stroke-width="1.5" stroke-linecap="round" stroke-linejoin="round"/>
<path d="M5.44633 5.60205C5.53866 5.60205 5.62892 5.62943 5.70569 5.68073C5.78246 5.73202 5.8423 5.80493 5.87763 5.89024C5.91296 5.97554 5.92221 6.0694 5.9042 6.15996C5.88618 6.25052 5.84172 6.3337 5.77643 6.39899C5.71114 6.46428 5.62796 6.50874 5.5374 6.52675C5.44685 6.54477 5.35298 6.53552 5.26768 6.50019C5.18238 6.46485 5.10947 6.40502 5.05817 6.32825C5.00687 6.25148 4.97949 6.16122 4.97949 6.06889C4.97949 5.94507 5.02868 5.82633 5.11623 5.73878C5.20377 5.65123 5.32252 5.60205 5.44633 5.60205" stroke="#3384FF" stroke-width="1.5" stroke-linecap="round" stroke-linejoin="round"/>
</svg>
