<svg width="22" height="22" viewBox="0 0 22 22" fill="none" xmlns="http://www.w3.org/2000/svg">
<path d="M20.625 8.70833H18.9182C18.7485 8.12185 18.5139 7.55613 18.2187 7.02167L19.426 5.81533C19.5538 5.68764 19.6551 5.53602 19.7243 5.36914C19.7934 5.20226 19.829 5.02339 19.829 4.84275C19.829 4.66211 19.7934 4.48324 19.7243 4.31636C19.6551 4.14948 19.5538 3.99786 19.426 3.87017L18.1289 2.57492C17.8711 2.31714 17.5214 2.17234 17.1568 2.17234C16.7922 2.17234 16.4425 2.31714 16.1847 2.57492L14.9765 3.78217C14.4428 3.48682 13.8776 3.25221 13.2917 3.08275V1.375C13.2917 1.01033 13.1468 0.660591 12.8889 0.402728C12.6311 0.144866 12.2813 0 11.9167 0L10.0833 0C9.71866 0 9.36892 0.144866 9.11106 0.402728C8.8532 0.660591 8.70833 1.01033 8.70833 1.375V3.08275C8.1222 3.2526 7.5568 3.48719 7.02258 3.78217L5.81442 2.57492C5.55657 2.31714 5.20689 2.17234 4.84229 2.17234C4.47769 2.17234 4.12802 2.31714 3.87017 2.57492L2.57308 3.87108C2.44531 3.99878 2.34395 4.15039 2.27479 4.31727C2.20564 4.48415 2.17004 4.66302 2.17004 4.84367C2.17004 5.02431 2.20564 5.20318 2.27479 5.37006C2.34395 5.53694 2.44531 5.68856 2.57308 5.81625L3.78125 7.0235C3.4857 7.55712 3.25109 8.12228 3.08183 8.70833H1.375C1.01033 8.70833 0.660591 8.8532 0.402728 9.11106C0.144866 9.36892 0 9.71866 0 10.0833L0 11.9167C0 12.2813 0.144866 12.6311 0.402728 12.8889C0.660591 13.1468 1.01033 13.2917 1.375 13.2917H3.08183C3.25103 13.878 3.48564 14.4435 3.78125 14.9774L2.57217 16.1865C2.31439 16.4444 2.16958 16.794 2.16958 17.1586C2.16958 17.5232 2.31439 17.8729 2.57217 18.1308L3.86833 19.4269C4.13125 19.6753 4.47923 19.8137 4.84092 19.8137C5.2026 19.8137 5.55058 19.6753 5.8135 19.4269L7.02167 18.2197C7.55616 18.515 8.12187 18.7499 8.70833 18.92V20.625C8.70833 20.9897 8.8532 21.3394 9.11106 21.5973C9.36892 21.8551 9.71866 22 10.0833 22H11.9167C12.2813 22 12.6311 21.8551 12.8889 21.5973C13.1468 21.3394 13.2917 20.9897 13.2917 20.625V18.92C13.8778 18.7502 14.4432 18.5156 14.9774 18.2206L16.1856 19.4278C16.4434 19.6856 16.7931 19.8304 17.1577 19.8304C17.5223 19.8304 17.872 19.6856 18.1298 19.4278L19.426 18.1317C19.6838 17.8738 19.8286 17.5241 19.8286 17.1595C19.8286 16.7949 19.6838 16.4453 19.426 16.1874L18.2187 14.9802C18.5142 14.4459 18.7488 13.8801 18.9182 13.2935H20.625C20.8057 13.2935 20.9847 13.2579 21.1516 13.1887C21.3186 13.1194 21.4702 13.018 21.5979 12.8901C21.7256 12.7622 21.8269 12.6105 21.8959 12.4434C21.9649 12.2764 22.0002 12.0974 22 11.9167V10.0833C22 9.71866 21.8551 9.36892 21.5973 9.11106C21.3394 8.8532 20.9897 8.70833 20.625 8.70833ZM11 15.5833C10.0935 15.5833 9.20736 15.3145 8.45364 14.8109C7.69991 14.3073 7.11245 13.5915 6.76555 12.754C6.41865 11.9165 6.32788 10.9949 6.50473 10.1058C6.68158 9.21676 7.1181 8.40008 7.75909 7.75909C8.40008 7.1181 9.21676 6.68158 10.1058 6.50473C10.9949 6.32789 11.9165 6.41865 12.754 6.76555C13.5915 7.11245 14.3073 7.69991 14.8109 8.45364C15.3145 9.20736 15.5833 10.0935 15.5833 11C15.5819 12.2151 15.0985 13.3801 14.2393 14.2393C13.3801 15.0985 12.2151 15.5819 11 15.5833Z" fill="white"/>
</svg>
