<svg width="31" height="31" viewBox="0 0 31 31" fill="none" xmlns="http://www.w3.org/2000/svg">
<path d="M15.2506 18.9847C18.8601 18.9847 21.7863 16.0586 21.7863 12.449C21.7863 8.83941 18.8601 5.91327 15.2506 5.91327C11.641 5.91327 8.71484 8.83941 8.71484 12.449C8.71484 16.0586 11.641 18.9847 15.2506 18.9847Z" stroke="#3384FF" stroke-width="1.5" stroke-linecap="round" stroke-linejoin="round"/>
<path d="M23.8565 26.2997C22.7289 25.165 21.388 24.2645 19.9111 23.65C18.4341 23.0355 16.8502 22.7192 15.2505 22.7192C13.6508 22.7192 12.0669 23.0355 10.59 23.65C9.113 24.2645 7.77214 25.165 6.64453 26.2997" stroke="#3384FF" stroke-width="1.5" stroke-linecap="round" stroke-linejoin="round"/>
<path d="M15.2502 29.2551C22.985 29.2551 29.2553 22.9848 29.2553 15.25C29.2553 7.51517 22.985 1.24487 15.2502 1.24487C7.51542 1.24487 1.24512 7.51517 1.24512 15.25C1.24512 22.9848 7.51542 29.2551 15.2502 29.2551Z" stroke="#3384FF" stroke-width="1.5" stroke-linecap="round" stroke-linejoin="round"/>
</svg>
