<svg width="31" height="31" viewBox="0 0 31 31" fill="none" xmlns="http://www.w3.org/2000/svg">
<path d="M16.8066 10.5817H14.2759C13.888 10.5819 13.5123 10.7172 13.2133 10.9641C12.9142 11.2111 12.7104 11.5545 12.6368 11.9353C12.5632 12.3161 12.6244 12.7107 12.8099 13.0513C12.9954 13.392 13.2936 13.6574 13.6534 13.8022L16.2228 14.8305C16.5826 14.9753 16.8808 15.2408 17.0663 15.5814C17.2518 15.922 17.313 16.3166 17.2394 16.6974C17.1658 17.0783 16.962 17.4216 16.6629 17.6686C16.3639 17.9156 15.9882 18.0508 15.6004 18.0511H13.0721" stroke="#3384FF" stroke-width="1.5" stroke-linecap="round" stroke-linejoin="round"/>
<path d="M14.9395 10.5817V9.64798" stroke="#3384FF" stroke-width="1.5" stroke-linecap="round" stroke-linejoin="round"/>
<path d="M14.9395 18.9847V18.051" stroke="#3384FF" stroke-width="1.5" stroke-linecap="round" stroke-linejoin="round"/>
<path d="M28.01 14.3163C28.0101 13.1578 27.651 12.0277 26.9822 11.0817C26.3134 10.1358 25.3678 9.42043 24.2755 9.03425V6.84696C24.2755 6.35171 24.0788 5.87674 23.7286 5.52655C23.3784 5.17635 22.9035 4.97961 22.4083 4.97961H7.47022C6.975 4.97961 6.50005 5.17635 6.14987 5.52655C5.79969 5.87674 5.60297 6.35171 5.60297 6.84696V9.03425C4.51049 9.42022 3.56458 10.1355 2.89552 11.0815C2.22646 12.0275 1.86719 13.1576 1.86719 14.3163C1.86719 15.475 2.22646 16.6052 2.89552 17.5512C3.56458 18.4972 4.51049 19.2125 5.60297 19.5985V21.7857C5.60297 22.281 5.79969 22.756 6.14987 23.1061C6.50005 23.4563 6.975 23.6531 7.47022 23.6531H22.4083C22.9035 23.6531 23.3784 23.4563 23.7286 23.1061C24.0788 22.756 24.2755 22.281 24.2755 21.7857V19.5985C25.3678 19.2123 26.3134 18.4969 26.9822 17.551C27.651 16.605 28.0101 15.4749 28.01 14.3163Z" stroke="#3384FF" stroke-width="1.5" stroke-linecap="round" stroke-linejoin="round"/>
</svg>
