<svg width="31" height="31" viewBox="0 0 31 31" fill="none" xmlns="http://www.w3.org/2000/svg">
<path d="M21.7858 29.2551C25.911 29.2551 29.2552 25.9109 29.2552 21.7857C29.2552 17.6605 25.911 14.3163 21.7858 14.3163C17.6606 14.3163 14.3164 17.6605 14.3164 21.7857C14.3164 25.9109 17.6606 29.2551 21.7858 29.2551Z" stroke="#3384FF" stroke-width="1.5" stroke-linecap="round" stroke-linejoin="round"/>
<path d="M21.7861 18.0511V25.5204" stroke="#3384FF" stroke-width="1.5" stroke-linecap="round" stroke-linejoin="round"/>
<path d="M21.7861 25.5204L24.5872 22.7194" stroke="#3384FF" stroke-width="1.5" stroke-linecap="round" stroke-linejoin="round"/>
<path d="M21.7864 25.5204L18.9854 22.7194" stroke="#3384FF" stroke-width="1.5" stroke-linecap="round" stroke-linejoin="round"/>
<path d="M10.5818 25.5204H3.11246C2.61721 25.5204 2.14225 25.3237 1.79205 24.9735C1.44185 24.6233 1.24512 24.1483 1.24512 23.6531V3.11225C1.24512 2.617 1.44185 2.14203 1.79205 1.79184C2.14225 1.44164 2.61721 1.2449 3.11246 1.2449H16.3445C16.8394 1.24501 17.314 1.44157 17.6641 1.79141L21.2394 5.36676C21.5893 5.71683 21.7858 6.19145 21.7859 6.68636V10.5816" stroke="#3384FF" stroke-width="1.5" stroke-linecap="round" stroke-linejoin="round"/>
</svg>
