<svg width="31" height="31" viewBox="0 0 31 31" fill="none" xmlns="http://www.w3.org/2000/svg">
<path d="M21.7858 29.2551C25.911 29.2551 29.2552 25.9109 29.2552 21.7857C29.2552 17.6605 25.911 14.3163 21.7858 14.3163C17.6606 14.3163 14.3164 17.6605 14.3164 21.7857C14.3164 25.9109 17.6606 29.2551 21.7858 29.2551Z" stroke="#3384FF" stroke-width="1.5" stroke-linecap="round" stroke-linejoin="round"/>
<path d="M25.1144 19.6134L21.498 24.4361C21.4176 24.5431 21.3151 24.6315 21.1976 24.6955C21.0801 24.7594 20.9502 24.7974 20.8167 24.8068C20.6832 24.8163 20.5493 24.797 20.4239 24.7502C20.2985 24.7034 20.1847 24.6303 20.09 24.5357L18.2227 22.6684" stroke="#3384FF" stroke-width="1.5" stroke-linecap="round" stroke-linejoin="round"/>
<path d="M4.97949 8.71429V19.9184H10.5815" stroke="#3384FF" stroke-width="1.5" stroke-linecap="round" stroke-linejoin="round"/>
<path d="M4.97949 16.1837L8.32702 12.8361C8.50044 12.6626 8.70634 12.525 8.93298 12.431C9.15961 12.3371 9.40253 12.2888 9.64786 12.2888C9.89318 12.2888 10.1361 12.3371 10.3627 12.431C10.5894 12.525 10.7953 12.6626 10.9687 12.8361L11.692 13.5594C11.8926 13.7599 12.1363 13.912 12.4045 14.0042C12.6728 14.0964 12.9585 14.1263 13.24 14.0916C13.5215 14.0569 13.7914 13.9586 14.0292 13.804C14.267 13.6495 14.4665 13.4428 14.6125 13.1997L15.0582 12.4527" stroke="#3384FF" stroke-width="1.5" stroke-linecap="round" stroke-linejoin="round"/>
<path d="M9.64817 25.5204H3.11246C2.61721 25.5204 2.14225 25.3237 1.79205 24.9735C1.44185 24.6233 1.24512 24.1483 1.24512 23.6531V3.11225C1.24512 2.617 1.44185 2.14203 1.79205 1.79184C2.14225 1.44164 2.61721 1.2449 3.11246 1.2449H16.3445C16.8394 1.24501 17.314 1.44157 17.6641 1.79141L21.2394 5.36676C21.5893 5.71683 21.7858 6.19145 21.7859 6.68636V9.64797" stroke="#3384FF" stroke-width="1.5" stroke-linecap="round" stroke-linejoin="round"/>
</svg>
