<svg width="22" height="22" viewBox="0 0 22 22" fill="none" xmlns="http://www.w3.org/2000/svg">
<path d="M4.68085 0H1.40426C0.628707 0 0 0.628707 0 1.40426V4.68085C0 5.4564 0.628707 6.08511 1.40426 6.08511H4.68085C5.4564 6.08511 6.08511 5.4564 6.08511 4.68085V1.40426C6.08511 0.628707 5.4564 0 4.68085 0Z" fill="white"/>
<path d="M4.68085 7.95746H1.40426C0.628707 7.95746 0 8.58617 0 9.36171V12.6383C0 13.4139 0.628707 14.0426 1.40426 14.0426H4.68085C5.4564 14.0426 6.08511 13.4139 6.08511 12.6383V9.36171C6.08511 8.58617 5.4564 7.95746 4.68085 7.95746Z" fill="white"/>
<path d="M4.68085 15.9149H1.40426C0.628707 15.9149 0 16.5436 0 17.3192V20.5958C0 21.3713 0.628707 22 1.40426 22H4.68085C5.4564 22 6.08511 21.3713 6.08511 20.5958V17.3192C6.08511 16.5436 5.4564 15.9149 4.68085 15.9149Z" fill="white"/>
<path d="M12.6384 0H9.36177C8.58623 0 7.95752 0.628707 7.95752 1.40426V4.68085C7.95752 5.4564 8.58623 6.08511 9.36177 6.08511H12.6384C13.4139 6.08511 14.0426 5.4564 14.0426 4.68085V1.40426C14.0426 0.628707 13.4139 0 12.6384 0Z" fill="white"/>
<path d="M12.6384 7.95746H9.36177C8.58623 7.95746 7.95752 8.58617 7.95752 9.36171V12.6383C7.95752 13.4139 8.58623 14.0426 9.36177 14.0426H12.6384C13.4139 14.0426 14.0426 13.4139 14.0426 12.6383V9.36171C14.0426 8.58617 13.4139 7.95746 12.6384 7.95746Z" fill="white"/>
<path d="M12.6384 15.9149H9.36177C8.58623 15.9149 7.95752 16.5436 7.95752 17.3192V20.5958C7.95752 21.3713 8.58623 22 9.36177 22H12.6384C13.4139 22 14.0426 21.3713 14.0426 20.5958V17.3192C14.0426 16.5436 13.4139 15.9149 12.6384 15.9149Z" fill="white"/>
<path d="M20.5959 0H17.3193C16.5437 0 15.915 0.628707 15.915 1.40426V4.68085C15.915 5.4564 16.5437 6.08511 17.3193 6.08511H20.5959C21.3714 6.08511 22.0001 5.4564 22.0001 4.68085V1.40426C22.0001 0.628707 21.3714 0 20.5959 0Z" fill="white"/>
<path d="M20.5959 7.95746H17.3193C16.5437 7.95746 15.915 8.58617 15.915 9.36171V12.6383C15.915 13.4139 16.5437 14.0426 17.3193 14.0426H20.5959C21.3714 14.0426 22.0001 13.4139 22.0001 12.6383V9.36171C22.0001 8.58617 21.3714 7.95746 20.5959 7.95746Z" fill="white"/>
<path d="M20.5959 15.9149H17.3193C16.5437 15.9149 15.915 16.5436 15.915 17.3192V20.5958C15.915 21.3713 16.5437 22 17.3193 22H20.5959C21.3714 22 22.0001 21.3713 22.0001 20.5958V17.3192C22.0001 16.5436 21.3714 15.9149 20.5959 15.9149Z" fill="white"/>
</svg>
