<svg width="22" height="22" viewBox="0 0 22 22" fill="none" xmlns="http://www.w3.org/2000/svg">
<path d="M11 0C8.82441 0 6.69767 0.645139 4.88873 1.85383C3.07979 3.06253 1.66989 4.78049 0.83733 6.79048C0.00476615 8.80047 -0.213071 11.0122 0.211367 13.146C0.635804 15.2798 1.68345 17.2398 3.22183 18.7782C4.76021 20.3165 6.72022 21.3642 8.85401 21.7886C10.9878 22.2131 13.1995 21.9952 15.2095 21.1627C17.2195 20.3301 18.9375 18.9202 20.1462 17.1113C21.3549 15.3023 22 13.1756 22 11C21.9968 8.08359 20.8369 5.28753 18.7747 3.22531C16.7125 1.16309 13.9164 0.00315432 11 0V0ZM11 17.4167C10.7281 17.4167 10.4622 17.336 10.2361 17.1849C10.01 17.0338 9.83374 16.8191 9.72967 16.5679C9.6256 16.3166 9.59837 16.0401 9.65142 15.7734C9.70448 15.5067 9.83543 15.2617 10.0277 15.0694C10.22 14.8771 10.465 14.7461 10.7318 14.6931C10.9985 14.64 11.2749 14.6673 11.5262 14.7713C11.7774 14.8754 11.9922 15.0516 12.1433 15.2778C12.2944 15.5039 12.375 15.7697 12.375 16.0417C12.375 16.4063 12.2301 16.7561 11.9723 17.0139C11.7144 17.2718 11.3647 17.4167 11 17.4167ZM12.4667 11.8433C12.3031 11.9147 12.164 12.0323 12.0663 12.1816C11.9686 12.3309 11.9166 12.5055 11.9167 12.6839C11.9167 12.927 11.8201 13.1602 11.6482 13.3321C11.4763 13.504 11.2431 13.6006 11 13.6006C10.7569 13.6006 10.5237 13.504 10.3518 13.3321C10.1799 13.1602 10.0833 12.927 10.0833 12.6839C10.0833 12.1488 10.2393 11.6252 10.5324 11.1774C10.8255 10.7297 11.2429 10.3771 11.7333 10.1631C12.0363 10.0309 12.2979 9.81917 12.4904 9.55043C12.6829 9.28169 12.7992 8.96591 12.8269 8.6365C12.8546 8.30709 12.7927 7.97632 12.6478 7.6792C12.5029 7.38208 12.2804 7.12966 12.0038 6.94867C11.7271 6.76768 11.4067 6.66485 11.0764 6.65107C10.7462 6.63728 10.4183 6.71306 10.1276 6.87037C9.83681 7.02768 9.59402 7.26068 9.42486 7.54469C9.25571 7.82871 9.1665 8.15318 9.16667 8.48375C9.16667 8.72686 9.07009 8.96002 8.89818 9.13193C8.72628 9.30384 8.49312 9.40042 8.25 9.40042C8.00689 9.40042 7.77373 9.30384 7.60182 9.13193C7.42991 8.96002 7.33334 8.72686 7.33334 8.48375C7.33333 7.82268 7.51204 7.17391 7.85055 6.60609C8.18906 6.03828 8.67479 5.57254 9.25632 5.25817C9.83785 4.9438 10.4936 4.79249 11.154 4.82026C11.8145 4.84803 12.4552 5.05385 13.0083 5.41593C13.5614 5.778 14.0063 6.28287 14.296 6.8771C14.5856 7.47133 14.7092 8.13281 14.6537 8.79154C14.5982 9.45027 14.3657 10.0817 13.9807 10.6191C13.5957 11.1565 13.0725 11.5798 12.4667 11.8442V11.8433Z" fill="white"/>
</svg>
