<svg width="31" height="31" viewBox="0 0 31 31" fill="none" xmlns="http://www.w3.org/2000/svg">
<path d="M10.5889 29.2551V16.1943" stroke="#3384FF" stroke-width="1.5" stroke-linecap="round" stroke-linejoin="round"/>
<path d="M24.6654 19.7394C25.5269 19.5236 26.3304 19.1212 27.0193 18.5605C27.7081 17.9999 28.2653 17.2948 28.6516 16.495C29.038 15.6952 29.2439 14.8203 29.2549 13.9321C29.2658 13.044 29.0816 12.1642 28.7152 11.3551C28.3487 10.546 27.8091 9.82733 27.1343 9.24983C26.4596 8.67234 25.6662 8.25015 24.8104 8.01313C23.9545 7.7761 23.057 7.73003 22.1814 7.87816C21.3058 8.02629 20.4734 8.36501 19.7431 8.87037C19.4751 7.42759 18.8707 6.06838 17.9788 4.90316C17.087 3.73794 15.9329 2.79959 14.6103 2.16434C13.2877 1.52908 11.8339 1.21485 10.3671 1.24717C8.90028 1.27948 7.46176 1.65744 6.16843 2.35032C4.87509 3.0432 3.76342 4.03147 2.92373 5.23484C2.08404 6.4382 1.54001 7.82272 1.33586 9.2759C1.1317 10.7291 1.27317 12.2099 1.74878 13.5981C2.22438 14.9864 3.0207 16.2428 4.07304 17.2653" stroke="#3384FF" stroke-width="1.5" stroke-linecap="round" stroke-linejoin="round"/>
<path d="M14.3193 19.926L10.5884 16.1943L6.85742 19.926" stroke="#3384FF" stroke-width="1.5" stroke-linecap="round" stroke-linejoin="round"/>
<path d="M19.916 16.1943V29.2551" stroke="#3384FF" stroke-width="1.5" stroke-linecap="round" stroke-linejoin="round"/>
<path d="M16.1846 25.5235L19.9155 29.2551L23.6465 25.5235" stroke="#3384FF" stroke-width="1.5" stroke-linecap="round" stroke-linejoin="round"/>
</svg>
