<svg width="31" height="31" viewBox="0 0 31 31" fill="none" xmlns="http://www.w3.org/2000/svg">
<path d="M27.3879 8.09186H3.11246C2.08116 8.09186 1.24512 8.9279 1.24512 9.95921V24.898C1.24512 25.9293 2.08116 26.7653 3.11246 26.7653H27.3879C28.4192 26.7653 29.2553 25.9293 29.2553 24.898V9.95921C29.2553 8.9279 28.4192 8.09186 27.3879 8.09186Z" stroke="#00C7E5" stroke-width="1.5" stroke-linecap="round" stroke-linejoin="round"/>
<path d="M20.8525 8.09185C20.8525 6.6061 20.2623 5.18119 19.2117 4.13061C18.1611 3.08002 16.7362 2.48981 15.2505 2.48981C13.7647 2.48981 12.3398 3.08002 11.2892 4.13061C10.2387 5.18119 9.64844 6.6061 9.64844 8.09185" stroke="#00C7E5" stroke-width="1.5" stroke-linecap="round" stroke-linejoin="round"/>
<path d="M1.24512 15.5612H13.3829" stroke="#00C7E5" stroke-width="1.5" stroke-linecap="round" stroke-linejoin="round"/>
<path d="M17.1172 15.5612H29.2549" stroke="#00C7E5" stroke-width="1.5" stroke-linecap="round" stroke-linejoin="round"/>
<path d="M15.2502 18.361C14.7549 18.361 14.2799 18.1643 13.9297 17.8141C13.5795 17.4639 13.3828 16.9889 13.3828 16.4937V14.6263C13.3828 14.1311 13.5795 13.6561 13.9297 13.3059C14.2799 12.9557 14.7549 12.759 15.2502 12.759C15.7454 12.759 16.2204 12.9557 16.5706 13.3059C16.9208 13.6561 17.1175 14.1311 17.1175 14.6263V16.4937C17.1175 16.9889 16.9208 17.4639 16.5706 17.8141C16.2204 18.1643 15.7454 18.361 15.2502 18.361Z" stroke="#00C7E5" stroke-width="1.5" stroke-linecap="round" stroke-linejoin="round"/>
</svg>
