<svg width="31" height="31" viewBox="0 0 31 31" fill="none" xmlns="http://www.w3.org/2000/svg">
<path d="M16.3159 10.6189L1.79216 25.1447C1.44189 25.4951 1.24512 25.9702 1.24512 26.4657C1.24512 26.9612 1.44189 27.4363 1.79216 27.7867C2.14242 28.137 2.61749 28.3339 3.11284 28.3339C3.60819 28.3339 4.08325 28.137 4.43351 27.7867L18.956 13.2608" stroke="#FFC400" stroke-width="1.5" stroke-linecap="round" stroke-linejoin="round"/>
<path d="M17.3601 1.48776L22.9216 4.01643L28.1981 9.29913C28.5481 9.64935 28.7448 10.1243 28.7448 10.6195C28.7448 11.1147 28.5481 11.5896 28.1981 11.9399L24.2373 15.9016C24.0639 16.0751 23.858 16.2128 23.6314 16.3067C23.4048 16.4006 23.1619 16.449 22.9166 16.449C22.6713 16.449 22.4285 16.4006 22.2019 16.3067C21.9752 16.2128 21.7694 16.0751 21.596 15.9016L16.3157 10.6189L13.7877 5.05604C13.5605 4.55671 13.4912 3.9999 13.5891 3.46011C13.687 2.92033 13.9474 2.42332 14.3354 2.03558V2.03558C14.7236 1.64676 15.2214 1.38592 15.762 1.28801C16.3026 1.19009 16.8602 1.25979 17.3601 1.48776V1.48776Z" stroke="#FFC400" stroke-width="1.5" stroke-linecap="round" stroke-linejoin="round"/>
</svg>
