<svg width="31" height="31" viewBox="0 0 31 31" fill="none" xmlns="http://www.w3.org/2000/svg">
<path d="M8.71387 17.1173H21.7853" stroke="#3384FF" stroke-width="1.5" stroke-linecap="round" stroke-linejoin="round"/>
<path d="M11.5146 20.852H18.984" stroke="#3384FF" stroke-width="1.5" stroke-linecap="round" stroke-linejoin="round"/>
<path d="M11.5146 24.5867H18.984" stroke="#3384FF" stroke-width="1.5" stroke-linecap="round" stroke-linejoin="round"/>
<path d="M17.1165 24.5867V27.3878C17.1165 27.883 16.9198 28.358 16.5696 28.7082C16.2194 29.0584 15.7444 29.2551 15.2492 29.2551H13.3818" stroke="#3384FF" stroke-width="1.5" stroke-linecap="round" stroke-linejoin="round"/>
<path d="M18.9846 17.1174V8.3458C18.9845 7.97715 18.8754 7.61676 18.6709 7.31005L17.426 5.45017C17.2241 5.14431 17.1168 4.78584 17.1172 4.41939V3.11225C17.1172 2.617 16.9205 2.14203 16.5703 1.79184C16.2201 1.44164 15.7451 1.2449 15.2499 1.2449C14.7546 1.2449 14.2797 1.44164 13.9295 1.79184C13.5793 2.14203 13.3825 2.617 13.3825 3.11225V4.41939C13.3822 4.78609 13.274 5.14459 13.0713 5.45017L11.8264 7.31005C11.6219 7.61676 11.5127 7.97715 11.5127 8.3458V17.1174" stroke="#3384FF" stroke-width="1.5" stroke-linecap="round" stroke-linejoin="round"/>
</svg>
