<svg width="31" height="31" viewBox="0 0 31 31" fill="none" xmlns="http://www.w3.org/2000/svg">
<path d="M9.44244 21.7382H2.61134C2.24899 21.7382 1.90149 21.5943 1.64527 21.3381C1.38906 21.0818 1.24512 20.7343 1.24512 20.372V7.2754C1.24519 6.91309 1.38919 6.56564 1.64542 6.30948L6.3097 1.6452C6.56586 1.38897 6.9133 1.24498 7.27562 1.2449H14.3417C14.704 1.24498 15.0515 1.38897 15.3076 1.6452L19.9719 6.30948C20.2281 6.56564 20.3721 6.91309 20.3722 7.2754V9.44223" stroke="#3384FF" stroke-width="1.5" stroke-linecap="round" stroke-linejoin="round"/>
<path d="M10.8086 1.2449V6.70978" stroke="#3384FF" stroke-width="1.5" stroke-linecap="round" stroke-linejoin="round"/>
<path d="M23.1074 13.5409L29.2554 18.3226L23.1074 23.1044" stroke="#3384FF" stroke-width="1.5" stroke-linecap="round" stroke-linejoin="round"/>
<path d="M29.2555 18.3227H24.4737C22.2996 18.3227 20.2146 19.1863 18.6773 20.7236C17.14 22.2609 16.2764 24.3459 16.2764 26.52V29.2525" stroke="#3384FF" stroke-width="1.5" stroke-linecap="round" stroke-linejoin="round"/>
<path d="M20.2493 6.7098H1.36816" stroke="#3384FF" stroke-width="1.5" stroke-linecap="round" stroke-linejoin="round"/>
</svg>
