<svg width="31" height="31" viewBox="0 0 31 31" fill="none" xmlns="http://www.w3.org/2000/svg">
<path d="M8.71387 17.1173H21.7853" stroke="#FF9920" stroke-width="1.5" stroke-linecap="round" stroke-linejoin="round"/>
<path d="M11.5146 20.852H18.984" stroke="#FF9920" stroke-width="1.5" stroke-linecap="round" stroke-linejoin="round"/>
<path d="M11.5146 24.5867H18.984" stroke="#FF9920" stroke-width="1.5" stroke-linecap="round" stroke-linejoin="round"/>
<path d="M17.1165 24.5867V27.3877C17.1165 27.8829 16.9198 28.3579 16.5696 28.7081C16.2194 29.0583 15.7444 29.255 15.2492 29.255H13.3818" stroke="#FF9920" stroke-width="1.5" stroke-linecap="round" stroke-linejoin="round"/>
<path d="M18.9846 17.1173V8.34577C18.9845 7.97712 18.8754 7.61673 18.6709 7.31002L17.426 5.45014C17.2241 5.14428 17.1168 4.7858 17.1172 4.41936V3.11222C17.1172 2.61697 16.9205 2.142 16.5703 1.79181C16.2201 1.44161 15.7451 1.24487 15.2499 1.24487C14.7546 1.24487 14.2797 1.44161 13.9295 1.79181C13.5793 2.142 13.3825 2.61697 13.3825 3.11222V4.41936C13.3822 4.78606 13.274 5.14456 13.0713 5.45014L11.8264 7.31002C11.6219 7.61673 11.5127 7.97712 11.5127 8.34577V17.1173" stroke="#FF9920" stroke-width="1.5" stroke-linecap="round" stroke-linejoin="round"/>
</svg>
