<svg width="31" height="31" viewBox="0 0 31 31" fill="none" xmlns="http://www.w3.org/2000/svg">
<path d="M4.97168 6.22449H16.3265V23.8875H6.23332C5.89872 23.8875 5.57781 23.7546 5.34121 23.518C5.1046 23.2814 4.97168 22.9605 4.97168 22.6259V6.22449V6.22449Z" stroke="#3384FF" stroke-width="1.5" stroke-linecap="round" stroke-linejoin="round"/>
<path d="M16.3262 6.22449H26.4193" stroke="#3384FF" stroke-width="1.5" stroke-linecap="round" stroke-linejoin="round"/>
<path d="M26.4193 13.7944V22.6259C26.4193 22.9605 26.2864 23.2814 26.0498 23.518C25.8132 23.7546 25.4923 23.8875 25.1577 23.8875H16.3262" stroke="#3384FF" stroke-width="1.5" stroke-linecap="round" stroke-linejoin="round"/>
<path d="M16.3262 6.22449L19.1623 13.0184C19.2582 13.2483 19.4199 13.4446 19.6272 13.5826C19.8344 13.7207 20.0778 13.7944 20.3268 13.7944H28.6247C28.7286 13.7943 28.8308 13.7686 28.9224 13.7195C29.014 13.6704 29.092 13.5995 29.1495 13.513C29.2069 13.4266 29.2421 13.3275 29.252 13.2243C29.2619 13.1211 29.2462 13.017 29.2063 12.9213L26.4193 6.22449" stroke="#3384FF" stroke-width="1.5" stroke-linecap="round" stroke-linejoin="round"/>
<path d="M4.97185 6.22449L1.34715 12.7156C1.28208 12.8237 1.24689 12.9471 1.24518 13.0732C1.24348 13.1993 1.27532 13.3236 1.33745 13.4333C1.39958 13.5431 1.48976 13.6343 1.59876 13.6978C1.70776 13.7612 1.83167 13.7945 1.95778 13.7944H4.97185" stroke="#3384FF" stroke-width="1.5" stroke-linecap="round" stroke-linejoin="round"/>
</svg>
