<svg width="31" height="31" viewBox="0 0 31 31" fill="none" xmlns="http://www.w3.org/2000/svg">
<path d="M27.3878 27.3878C27.3878 27.883 27.1911 28.358 26.8409 28.7082C26.4907 29.0584 26.0157 29.2551 25.5205 29.2551H4.97965C4.4844 29.2551 4.00943 29.0584 3.65924 28.7082C3.30904 28.358 3.1123 27.883 3.1123 27.3878V3.11225C3.1123 2.617 3.30904 2.14203 3.65924 1.79183C4.00943 1.44164 4.4844 1.2449 4.97965 1.2449H18.2117C18.7066 1.24501 19.1812 1.44157 19.5313 1.79141L26.8413 9.10145C27.1911 9.45151 27.3877 9.92614 27.3878 10.421V27.3878Z" stroke="#3384FF" stroke-width="1.5" stroke-linecap="round" stroke-linejoin="round"/>
<path d="M27.3875 10.5816H19.9181C19.4229 10.5816 18.9479 10.3849 18.5977 10.0347C18.2475 9.68451 18.0508 9.20954 18.0508 8.71429V1.2449" stroke="#3384FF" stroke-width="1.5" stroke-linecap="round" stroke-linejoin="round"/>
<path d="M8.02925 14.7446C8.29886 15.0987 8.64986 15.3826 9.0525 15.5722C9.45514 15.7618 9.89757 15.8516 10.3423 15.8339C11.7602 15.8339 12.9105 14.9711 12.9105 13.908C12.9105 12.8449 11.7639 11.9834 10.3473 11.9834C8.93056 11.9834 7.78027 11.1207 7.78027 10.0563C7.78027 8.9919 8.93056 8.13043 10.3473 8.13043C10.792 8.1124 11.2345 8.20202 11.6372 8.39166C12.0399 8.58131 12.3909 8.86537 12.6603 9.21971" stroke="#3384FF" stroke-width="1.5" stroke-linecap="round" stroke-linejoin="round"/>
<path d="M10.3477 15.8339V17.1173" stroke="#3384FF" stroke-width="1.5" stroke-linecap="round" stroke-linejoin="round"/>
<path d="M10.3477 6.84694V8.13043" stroke="#3384FF" stroke-width="1.5" stroke-linecap="round" stroke-linejoin="round"/>
<path d="M15.25 18.9847H22.7194" stroke="#3384FF" stroke-width="1.5" stroke-linecap="round" stroke-linejoin="round"/>
<path d="M8.71387 24.5867H22.719" stroke="#3384FF" stroke-width="1.5" stroke-linecap="round" stroke-linejoin="round"/>
</svg>
