<svg width="20" height="20" viewBox="0 0 20 20" fill="none" xmlns="http://www.w3.org/2000/svg">
<path d="M19.5123 17.164L15.6439 13.2934C16.8217 11.5292 17.3017 9.38976 16.9903 7.29116C16.6789 5.19255 15.5985 3.28485 13.9592 1.93914C12.3199 0.593434 10.2389 -0.0940673 8.121 0.0103678C6.00312 0.114803 3.99979 1.00371 2.50067 2.50418C1.00155 4.00464 0.113843 6.00939 0.0102139 8.12847C-0.0934152 10.2475 0.594446 12.3294 1.94 13.9692C3.28555 15.6089 5.19258 16.6892 7.29015 17C9.38772 17.3109 11.5258 16.8299 13.2886 15.6507L17.1571 19.5205C17.4721 19.8279 17.8947 20 18.3347 20C18.7747 20 19.1973 19.8279 19.5123 19.5205C19.8246 19.208 20 18.7842 20 18.3422C20 17.9003 19.8246 17.4765 19.5123 17.164ZM8.54903 2.50993C9.74323 2.50993 10.9106 2.86424 11.9036 3.52806C12.8965 4.19189 13.6704 5.13541 14.1274 6.23931C14.5844 7.34321 14.704 8.55791 14.471 9.7298C14.238 10.9017 13.6629 11.9781 12.8185 12.823C11.9741 13.6679 10.8982 14.2433 9.72698 14.4764C8.55573 14.7095 7.3417 14.5899 6.2384 14.1326C5.13511 13.6754 4.1921 12.901 3.52864 11.9076C2.86518 10.9141 2.51106 9.74606 2.51106 8.5512C2.51283 6.9495 3.14953 5.4139 4.28149 4.28132C5.41345 3.14875 6.9482 2.51169 8.54903 2.50993Z" fill="white"/>
</svg>
