<svg width="31" height="31" viewBox="0 0 31 31" fill="none" xmlns="http://www.w3.org/2000/svg">
<path d="M25.5151 26.7653C27.5773 26.7653 29.249 25.0932 29.249 23.0306C29.249 20.968 27.5773 19.2959 25.5151 19.2959C23.453 19.2959 21.7812 20.968 21.7812 23.0306C21.7812 25.0932 23.453 26.7653 25.5151 26.7653Z" stroke="#3384FF" stroke-width="1.5" stroke-linecap="round" stroke-linejoin="round"/>
<path d="M22.5655 8.57234L3.11205 9.95916C2.61691 9.95916 2.14205 10.1559 1.79193 10.5061C1.44181 10.8563 1.24512 11.3313 1.24512 11.8265C1.24512 12.3218 1.44181 12.7967 1.79193 13.1469C2.14205 13.4971 2.61691 13.6939 3.11205 13.6939H5.27769C6.35549 13.6945 7.42039 13.9285 8.39922 14.3798C9.37804 14.831 10.2476 15.4889 10.9482 16.3081L13.7536 19.5772C13.9288 19.7818 14.1463 19.9461 14.391 20.0587C14.6357 20.1713 14.9018 20.2296 15.1712 20.2296H17.1713C17.4451 20.2296 17.7157 20.1695 17.9637 20.0533C18.2117 19.9371 18.4311 19.7678 18.6063 19.5573L21.1279 16.531C21.5989 15.9655 22.1826 15.5046 22.8418 15.1776C23.501 14.8507 24.2212 14.6649 24.9563 14.6323C25.6913 14.5996 26.4251 14.7207 27.1107 14.9878C27.7963 15.2549 28.4187 15.6622 28.9379 16.1836L29.2553 16.5011" stroke="#3384FF" stroke-width="1.5" stroke-linecap="round" stroke-linejoin="round"/>
<path d="M4.97898 26.7653C7.04114 26.7653 8.71285 25.0932 8.71285 23.0306C8.71285 20.968 7.04114 19.2959 4.97898 19.2959C2.91683 19.2959 1.24512 20.968 1.24512 23.0306C1.24512 25.0932 2.91683 26.7653 4.97898 26.7653Z" stroke="#3384FF" stroke-width="1.5" stroke-linecap="round" stroke-linejoin="round"/>
<path d="M25.5155 23.0306L21.6273 3.97247C21.5391 3.55317 21.3093 3.17698 20.9767 2.90702C20.644 2.63706 20.2286 2.48974 19.8002 2.48979H17.5811" stroke="#3384FF" stroke-width="1.5" stroke-linecap="round" stroke-linejoin="round"/>
<path d="M4.97852 23.0306L12.1214 17.6726" stroke="#3384FF" stroke-width="1.5" stroke-linecap="round" stroke-linejoin="round"/>
<path d="M18.0475 8.89478V11.8265C18.0475 12.3218 17.8508 12.7967 17.5007 13.1469C17.1506 13.4971 16.6757 13.6939 16.1805 13.6939H14.1531C13.6583 13.6938 13.1837 13.4972 12.8338 13.1473L9.21191 9.52469" stroke="#3384FF" stroke-width="1.5" stroke-linecap="round" stroke-linejoin="round"/>
<path d="M27.8493 10.8929C27.2304 10.8929 26.6368 10.6469 26.1991 10.2092C25.7615 9.77144 25.5156 9.17773 25.5156 8.55867C25.5156 7.93961 25.7615 7.3459 26.1991 6.90815C26.6368 6.47041 27.2304 6.22449 27.8493 6.22449H28.7828V10.8929H27.8493Z" stroke="#3384FF" stroke-width="1.5" stroke-linecap="round" stroke-linejoin="round"/>
</svg>
