<svg width="31" height="31" viewBox="0 0 31 31" fill="none" xmlns="http://www.w3.org/2000/svg">
<path d="M12.4492 6.22449H3.11246C2.61721 6.22449 2.14225 6.42122 1.79205 6.77142C1.44186 7.12162 1.24512 7.59658 1.24512 8.09183V24.898C1.24512 25.3932 1.44186 25.8682 1.79205 26.2184C2.14225 26.5686 2.61721 26.7653 3.11246 26.7653H27.388C27.8832 26.7653 28.3582 26.5686 28.7084 26.2184C29.0586 25.8682 29.2553 25.3932 29.2553 24.898V8.09183C29.2553 7.59658 29.0586 7.12162 28.7084 6.77142C28.3582 6.42122 27.8832 6.22449 27.388 6.22449H18.0512" stroke="#8777D9" stroke-width="1.5" stroke-linecap="round" stroke-linejoin="round"/>
<path d="M18.0513 5.29083C18.0513 4.54795 17.7562 3.8355 17.2309 3.31021C16.7056 2.78491 15.9931 2.48981 15.2502 2.48981C14.5074 2.48981 13.7949 2.78491 13.2696 3.31021C12.7443 3.8355 12.4492 4.54795 12.4492 5.29083V9.02552C12.4492 9.27315 12.5476 9.51063 12.7227 9.68573C12.8978 9.86083 13.1353 9.95919 13.3829 9.95919H17.1176C17.3652 9.95919 17.6027 9.86083 17.7778 9.68573C17.9529 9.51063 18.0513 9.27315 18.0513 9.02552V5.29083Z" stroke="#8777D9" stroke-width="1.5" stroke-linecap="round" stroke-linejoin="round"/>
<path d="M10.5823 20.2296C12.3871 20.2296 13.8502 18.7665 13.8502 16.9617C13.8502 15.1569 12.3871 13.6938 10.5823 13.6938C8.77752 13.6938 7.31445 15.1569 7.31445 16.9617C7.31445 18.7665 8.77752 20.2296 10.5823 20.2296Z" stroke="#8777D9" stroke-width="1.5" stroke-linecap="round" stroke-linejoin="round"/>
<path d="M4.97949 26.7653C4.97949 25.2796 5.56971 23.8547 6.62029 22.8041C7.67088 21.7535 9.09578 21.1633 10.5815 21.1633C12.0673 21.1633 13.4922 21.7535 14.5428 22.8041C15.5934 23.8547 16.1836 25.2796 16.1836 26.7653H4.97949Z" stroke="#8777D9" stroke-width="1.5" stroke-linecap="round" stroke-linejoin="round"/>
<path d="M18.0508 15.5612H23.6528" stroke="#8777D9" stroke-width="1.5" stroke-linecap="round" stroke-linejoin="round"/>
<path d="M18.0508 19.296H25.5202" stroke="#8777D9" stroke-width="1.5" stroke-linecap="round" stroke-linejoin="round"/>
</svg>
